<?xml version="1.0" encoding="utf-8"?>
<!-- Generator: Adobe Illustrator 17.1.0, SVG Export Plug-In . SVG Version: 6.00 Build 0)  -->
<!DOCTYPE svg PUBLIC "-//W3C//DTD SVG 1.0//EN" "http://www.w3.org/TR/2001/REC-SVG-20010904/DTD/svg10.dtd">
<svg version="1.0" id="Layer_1" xmlns="http://www.w3.org/2000/svg" xmlns:xlink="http://www.w3.org/1999/xlink" x="0px" y="0px"
	 viewBox="0 0 595.3 841.9" enable-background="new 0 0 595.3 841.9" xml:space="preserve">
<g>
	<g>
		<path fill="#FEEB01" d="M-27.1-58.4c-5.9,5.9-18.9,14.3-16.2,22c2.2,6.1,14.4,14.4,19.1,19.1C-15-8.2-5.2-2.2,5.1,5.5
			c5.8,4.4,15.6,17.2,22.6,19.3c4.9,1.4,5.5-0.6,9.7-4.8c1.8-1.8,8.1-6.3,8-9.1C45.3,6.2,27.2-8.8,23.9-12.4
			C9.4-28.1-7-48.4-25.3-59"/>
		<g>
			<path fill="#FCE900" d="M-28.9-60.2c-6.2,6-16.9,12.2-17.3,21.9c-0.1,3.8,3,7.2,5.4,9.7c3.8,4.1,8.4,7.4,12.6,11.1
				c4.5,3.9,8.7,8.1,13.4,11.7C-8.6-1.1-2.1,3,4,7.8c7.4,5.8,12.9,15.9,22.1,19c3.9,1.3,6.9,0.9,10-2c3.3-3.1,8-6.5,10.5-10.4
				c4-6.3-4.1-12.6-8.1-16.6c-6.5-6.3-13-12.2-19.1-19C10.1-31.4,0.9-41.7-9.5-50.7c-4.5-3.9-9.3-7.4-14.5-10.5
				c-2.8-1.7-5.3,2.7-2.5,4.3C-6.6-45,6.7-26.1,22.8-9.9C28-4.7,33.7,0,38.7,5.3c2.5,2.6,5.3,4.7,2.4,7.9c-2.8,3-6.4,6.6-9.7,9.1
				C26.4,26.3,13,9.4,9.9,6.4C1.4-1.9-9.5-7.5-18.5-15.3c-3.7-3.2-7.1-6.6-10.9-9.7c-3.7-3.1-7.6-6.2-10.5-10.1
				c-5.5-7.6,9.9-17,14.5-21.5C-23-58.9-26.6-62.4-28.9-60.2L-28.9-60.2z"/>
		</g>
	</g>
	<g>
		<g>
			<path fill="#FCE900" d="M-44.9-34.5c9.6,9.7,18.5,20,27.6,30.2C-9.4,4.6-0.8,13,7.2,21.9c4.5,5,10.2,12.5,17.7,11.5
				c7.7-1.1,13.8-10.6,18.4-16c1.7-2.1-0.5-5.5-3-3.9c-3,1.9-5.4,4.5-7.8,7.1c-2.6,2.9-6.2,7.6-10.6,5.5C14.6,22.7,9.1,14.9,3.6,9.4
				c-2.3-2.3-5.8,1.2-3.5,3.5C6,19,12.3,28,20.6,31.1c9.9,3.6,15.3-8.9,22.1-13.3c-1-1.3-2-2.6-3-3.9c-4.4,5.2-9.3,12.9-16.2,14.7
				c-3.2,0.9-7.4-4.4-9.3-6.4c-2.9-2.9-5.5-6.1-8.3-9.1c-7.3-8-15-15.6-22.2-23.7c-8.2-9.3-16.4-18.6-25.1-27.4
				C-43.6-40.3-47.2-36.8-44.9-34.5L-44.9-34.5z"/>
		</g>
	</g>
	<g>
		<g>
			<path fill="#FCE900" d="M2.5,9.2c4.3,4.3,8.6,8.6,12.9,12.9c2.3,2.3,5.8-1.3,3.5-3.5C14.7,14.3,10.4,10,6.1,5.7
				C3.8,3.4,0.2,7,2.5,9.2L2.5,9.2z"/>
		</g>
	</g>
</g>
<g>
	<circle fill="#6E2262" cx="-8.7" cy="34.7" r="26.3"/>
	<path d="M18.1,34.7c0,0,0,0.6-0.1,1.9c0,0.6-0.1,1.4-0.3,2.2c-0.1,0.4-0.1,0.9-0.2,1.4c-0.1,0.5-0.3,1-0.4,1.6
		c-0.6,2.2-1.5,4.9-3.2,7.6c-1.6,2.8-4,5.7-7.2,8.2c-3.2,2.5-7.4,4.5-12.1,5.2C-6,62.9-6.7,62.9-7.3,63l-0.9,0.1l-0.5,0l-0.5,0
		c-1.2,0-2.2,0-3.6-0.2c-2.7-0.2-5.1-1-7.6-1.9c-2.5-1-4.8-2.4-7-4.1c-2.2-1.7-4.1-3.8-5.7-6.1c-1.6-2.3-2.9-4.9-3.8-7.6
		c-0.9-2.8-1.4-5.6-1.5-8.6l0-2.1c0-0.3,0-0.6,0-1l0.1-1.2c0.1-1.6,0.5-3,0.8-4.4c0.8-2.8,1.9-5.6,3.5-8.1c1.6-2.5,3.4-4.8,5.6-6.7
		c2.2-1.9,4.6-3.5,7.2-4.7c2.6-1.1,5.3-2,8-2.2c1.3-0.2,2.7-0.2,4-0.2l0.2,0l0.1,0l0.1,0c0,0,0.4,0,0.3,0l0.4,0l0.8,0.1l0.8,0.1
		c0.3,0,0.5,0,0.9,0.1c1.3,0.3,2.7,0.5,3.9,0.9C-1,5.5-0.4,5.7,0.2,5.9c0.6,0.2,1.1,0.5,1.7,0.7c2.2,1,4,2.3,5.7,3.7
		c3.3,2.8,5.6,6.1,7.1,9.1c1.6,3,2.3,5.8,2.8,8.1c0.1,0.6,0.2,1.1,0.3,1.6c0.1,0.5,0.1,1,0.2,1.4c0.1,0.9,0.2,1.7,0.2,2.3
		C18.1,34,18.1,34.7,18.1,34.7L18.1,34.7z M17.2,34.7c0,0-0.1-0.6-0.2-1.8c0-0.3,0-0.6-0.1-1c-0.1-0.4-0.2-0.7-0.2-1.2
		c-0.1-0.4-0.2-0.9-0.3-1.3c-0.2-0.5-0.3-1-0.5-1.5c-0.7-2.1-1.9-4.5-3.9-6.7c-1.9-2.3-4.6-4.4-7.7-5.9c-1.6-0.7-3.2-1.4-5-1.8
		c-0.4-0.1-0.9-0.2-1.3-0.3C-2.5,13-2.9,13-3.4,12.9c-0.9-0.2-1.7-0.2-2.6-0.3c-0.2,0-0.5,0-0.8,0l-0.8,0l-0.8,0l-0.4,0
		c-0.2,0,0.2,0,0.2,0l0,0l-0.1,0l-0.2,0c-1,0.1-1.9,0.1-2.9,0.3c-1.9,0.3-3.8,0.9-5.7,1.7c-1.9,0.8-3.6,1.9-5.3,3.1
		c-1.6,1.3-3.1,2.8-4.5,4.5c-1.3,1.7-2.3,3.7-3.1,5.8l-0.5,1.6c-0.2,0.5-0.2,1-0.3,1.5l-0.2,0.8c-0.1,0.2-0.1,0.6-0.1,0.9l-0.1,1
		l0,0.5l0,0.2l0,0.1l0,0.1c0-0.1,0,0.2,0-0.1c0,2.3,0.2,4.5,0.8,6.7c0.6,2.2,1.5,4.3,2.7,6.2c1.2,1.9,2.7,3.6,4.3,5.2
		c1.7,1.5,3.5,2.8,5.5,3.7c0.5,0.3,1,0.4,1.5,0.7c0.5,0.2,1,0.4,1.5,0.6c0.5,0.2,1,0.3,1.6,0.5c0.5,0.1,1,0.2,1.5,0.3
		c0.9,0.2,2.2,0.3,3.3,0.4l0.2,0l0.1,0l0.1,0c0,0-0.2,0-0.1,0l0.4,0l0.8,0c0.5,0,1,0,1.6,0c4.1-0.3,7.9-1.5,11.2-3.3
		c3.2-1.8,5.8-4.3,7.6-6.8c1.8-2.5,2.9-5,3.5-7.2c0.1-0.5,0.3-1,0.4-1.5c0.1-0.5,0.1-0.9,0.2-1.4c0.1-0.4,0.1-0.8,0.2-1.2
		c0-0.4,0-0.7,0-1C17.2,35.3,17.2,34.6,17.2,34.7L17.2,34.7z"/>
</g>
<g>
	<g>
		<path fill="#261C20" d="M20-74.4c-22.6,6.3-42.4,25.2-47.6,48.3c-3.5,15.3-2.3,39.1,14.7,46c9.1,3.7,20.4,2.4,28.4-3.3
			c7.8-5.6,9.1-17.5,5.2-25.8c-7.4-15.7-34-22.1-45.1-6.9C-29.3-9.4-29,0.4-27.7,8.2c1.7,10.4,8.9,18.3,15.2,26.3
			c2,2.5,5.5-1,3.5-3.5c-7.3-9.2-13.9-17.3-14.5-29.5c-0.5-9.1,2.5-18.1,12.1-20.5c9.6-2.3,21.4,1.9,26.6,10.3
			c2.9,4.7,2.9,10.4,1.6,15.6c-1.5,6.1-8.7,8.8-14.2,9.9c-9.2,1.9-18.2-1.7-22.8-9.9c-4.3-7.7-4.4-17.6-3.5-26.1
			c2.5-23.8,22.4-43.9,45-50.2C24.4-70.5,23.1-75.3,20-74.4L20-74.4z"/>
	</g>
</g>
<g>
	<g>
		<g>
			<g>
				<g>
					<path fill="#DE4227" d="M39.9-62.8c0.1-0.1-0.5-0.1-0.6-0.1C39.4-62.7,40-62.7,39.9-62.8z"/>
					<polygon fill="#DE4227" points="41.1,-60.6 40.8,-60.7 41.4,-60.3 					"/>
					<path fill="#DE4227" d="M40.9-58.7c1-0.1-0.1-0.7,0.3-1l0.2,0L40.6-60C40.7-59.6,41.2-59,40.9-58.7z"/>
					<path fill="#DE4227" d="M38.7-57.9c0.4,0,0.3,0.2,0.1-0.2c0,0-0.1,0-0.1,0C38.7-58,38.7-58,38.7-57.9z"/>
					<path fill="#DE4227" d="M38.7-58.1C38.7-58.3,38.4-58,38.7-58.1L38.7-58.1z"/>
					<path fill="#DE4227" d="M38.9-57.1l-0.3-0.3c-0.2,0-0.3,0.3-0.5,0.2C38.2-57,38.5-57,38.9-57.1z"/>
					<path fill="#DE4227" d="M39.6-56.8L39.4-57C39.3-56.9,39.3-56.9,39.6-56.8z"/>
					<path fill="#DE4227" d="M39.1-57.3l0.3,0.3c0.2,0,0.5,0-0.1-0.1C39.6-57.1,39.3-57.1,39.1-57.3z"/>
					<path fill="#DE4227" d="M39.3-57.4c0.2-0.1,0.4-0.3,0.7,0C39.9-58,39.2-57.9,39.3-57.4z"/>
					<path fill="#DE4227" d="M42-58.5l0.3-0.2l-0.3-0.2C42.1-58.8,41.6-58.5,42-58.5z"/>
					<path fill="#DE4227" d="M38.2-55.6c0.2,0,0.6,0,0.9,0l-0.2-0.2C38.6-55.7,38.5-55.5,38.2-55.6z"/>
					<path fill="#DE4227" d="M39-55.6l0.3,0.3C39.4-55.5,39.2-55.6,39-55.6z"/>
					<polygon fill="#DE4227" points="40.7,-56.7 40,-57.2 40.7,-56.6 					"/>
					<polygon fill="#DE4227" points="38,-54.4 37.5,-54.7 38.3,-54.3 					"/>
					<path fill="#DE4227" d="M38-53.7c-0.4-0.2-0.7,0.1-1-0.1c0.1,0.2,0.4,0.4,0.7,0.6C37.6-53.4,37.7-53.5,38-53.7z"/>
					<path fill="#DE4227" d="M38.2-52.9c-0.1-0.1-0.3-0.2-0.4-0.3C37.8-53.1,38-53,38.2-52.9z"/>
					<path fill="#DE4227" d="M39.2-54.8c-0.1,0-0.5,0-0.6,0.2l0.6,0C39.2-54.7,39.2-54.7,39.2-54.8z"/>
					<path fill="#DE4227" d="M39.2-54.6L39.2-54.6c0,0.1-0.1,0.2-0.1,0.2C39.1-54.4,39.1-54.5,39.2-54.6z"/>
					<path fill="#DE4227" d="M39.2-54.8L39.2-54.8C39.2-54.8,39.3-54.8,39.2-54.8z"/>
					<path fill="#DE4227" d="M40-55.9c0.3,0.2,0.6,0.6,1.2,0.3C40.8-55.8,40.5-55.6,40-55.9z"/>
					<path fill="#DE4227" d="M40-54.8l0.2-0.3c-0.2,0-0.4,0-0.6-0.1L40-54.8z"/>
					<polygon fill="#DE4227" points="40.1,-54.7 40,-54.8 39.9,-54.7 					"/>
					<path fill="#DE4227" d="M38.8-53.3c0.2,0.2,0.3,0.3,0.3,0.5c0.1-0.2,0.2-0.3,0.2-0.5C39.1-53.4,38.8-53.5,38.8-53.3z"/>
					<path fill="#DE4227" d="M39-54L39-54C39.1-53.9,39.1-53.9,39-54z"/>
					<path fill="#DE4227" d="M38.9-51.2c0,0,0.1,0,0.1,0L38.9-51.2L38.9-51.2z"/>
					<path fill="#DE4227" d="M39.4-53.4c0.1-0.1,0-0.2-0.2-0.3c0,0.1,0.1,0.2,0.1,0.3C39.4-53.3,39.5-53.3,39.4-53.4z"/>
					<path fill="#DE4227" d="M38.4-52.4c0.1-0.1,0.3-0.1,0.4-0.2C38.6-52.5,38.3-52.4,38.4-52.4z"/>
					<path fill="#DE4227" d="M38.9-53.9C38.9-53.9,38.9-53.9,38.9-53.9C38.7-53.9,38.8-53.9,38.9-53.9z"/>
					<path fill="#DE4227" d="M38.9-53.9c0.1,0.1,0.2,0.1,0.3,0.2c0-0.1-0.1-0.2-0.2-0.2C39-53.9,39-53.9,38.9-53.9z"/>
					<path fill="#DE4227" d="M42.7-50.2c-0.6-0.1-1-0.5-0.4-0.7c-0.4-0.4-2.2-0.4-3.3-0.3c0.2,0,0.5,0.1,0.8,0.4
						c0.3-0.1,0.8-0.6,1.3-0.3c0.2,0.4-0.2,0.3-0.6,0.5c0.7-0.1,0.9,0.7,2,0.7l-0.3-0.4C42.3-50.3,42.5-50.1,42.7-50.2z"/>
					<path fill="#DE4227" d="M39.1-51.8l-0.1-0.1c-0.1,0.1-0.4,0.2-0.8,0.3c0.2,0.2,0.4,0.3,0.6,0.4L39.1-51.8L39.1-51.8z"/>
					<path fill="#DE4227" d="M39.1-52.5c0.6,0.2,0.8,0.5,1.5,0.4c0-0.4-0.5-0.3-0.7-0.6C40-52.1,39.6-52.9,39.1-52.5
						c0-0.1,0-0.2-0.1-0.3c-0.1,0.1-0.2,0.2-0.3,0.3l0,0l0,0l0,0c0.1,0,0.1,0,0.1,0c0,0,0,0,0,0C39-52.5,39.1-52.5,39.1-52.5
						c-0.1,0.2-0.2,0-0.2-0.1c0,0-0.1,0-0.1,0l0,0l0.3,0.6C39.2-52,39.2-52.2,39.1-52.5z"/>
					<path fill="#DE4227" d="M42.5-55.2c-0.1,0-0.1,0-0.1,0C42.4-55.1,42.5-55.1,42.5-55.2z"/>
					<path fill="#DE4227" d="M42.1-55c-0.1-0.1-0.3-0.1-0.2-0.3c0.2-0.1,0.3,0,0.5,0c-0.2-0.1-0.4-0.3-0.7-0.1l0.1,0.1
						c-0.2,0.2-1,0.5-1.1,0.4C41.2-54.8,41.6-54.9,42.1-55z"/>
					<path fill="#DE4227" d="M40.8-53.7l0.2,0.5l0.6-0.2l-0.3,0C41.4-53.6,41-53.6,40.8-53.7z"/>
					<polygon fill="#DE4227" points="38.6,-51.2 37.9,-51.3 38.8,-50.9 					"/>
					<polygon fill="#DE4227" points="38.6,-50.5 38,-50.6 38.3,-50.4 					"/>
					<path fill="#DE4227" d="M38.7-12.6l0.1,0.2C38.8-12.5,38.7-12.6,38.7-12.6z"/>
					<path fill="#DE4227" d="M38.9-13.7l-0.3-0.1C38.8-13.7,38.9-13.6,38.9-13.7z"/>
					<path fill="#DE4227" d="M36-34.6c-0.6,0.1-1.4,0.2-0.8,0.3l0.6,0C35.8-34.5,35.8-34.6,36-34.6z"/>
					<path fill="#DE4227" d="M37.4-23c0.1,0,0.1,0,0.2,0c-0.2-0.1-0.4-0.2-0.5-0.3C37.2-23.2,37.3-23.1,37.4-23z"/>
					<path fill="#DE4227" d="M39.9-22.4l-0.4,0.2C39.6-22.2,39.8-22.3,39.9-22.4z"/>
					<path fill="#DE4227" d="M38.3-6.7l0.6,0.3C38.9-6.7,38.6-6.6,38.3-6.7z"/>
					<path fill="#DE4227" d="M37.8-43.9c-0.3,0.1-0.4,0.3-0.4,0.4C37.7-43.6,38.3-43.7,37.8-43.9z"/>
					<path fill="#DE4227" d="M32.4-14.3c0.1,0.1,0.2,0.2,0.3,0.2C32.6-14.2,32.5-14.2,32.4-14.3z"/>
					<path fill="#DE4227" d="M37.3-43c0.1,0,0.1,0,0.2-0.1c-0.1-0.2-0.1-0.3-0.1-0.5C37.1-43.4,36.9-43.2,37.3-43z"/>
					<path fill="#DE4227" d="M35.1,14.1C35.1,14.2,35.1,14.2,35.1,14.1C35.1,14.2,35.1,14.2,35.1,14.1z"/>
					<path fill="#DE4227" d="M28.7,20.1c0-0.1,0-0.2,0-0.3C28.6,19.9,28.6,20,28.7,20.1z"/>
					<path fill="#DE4227" d="M37.9-48C37.9-48.1,37.9-48,37.9-48L37.9-48z"/>
					<path fill="#DE4227" d="M40.4-48.3c0.1,0,0.1,0.1,0.3,0.1C40.6-48.2,40.5-48.3,40.4-48.3z"/>
					<path fill="#DE4227" d="M40.8-40.9L40.8-40.9C40.9-41,40.9-40.9,40.8-40.9z"/>
					<path fill="#DE4227" d="M38.2-48.1c-0.1,0-0.2,0.1-0.2,0.1C38.1-48,38.2-48.1,38.2-48.1z"/>
					<path fill="#DE4227" d="M37.9-48.2c0,0,0.1-0.1,0.1-0.1C37.9-48.3,37.9-48.3,37.9-48.2z"/>
					<path fill="#DE4227" d="M37.9-47.8c0-0.1,0-0.1,0.1-0.2c0,0-0.1,0-0.1,0C37.9-47.9,37.9-47.9,37.9-47.8z"/>
					<path fill="#DE4227" d="M34.6,2.7C34.6,2.7,34.6,2.7,34.6,2.7C34.8,2.9,34.8,2.8,34.6,2.7z"/>
					<path fill="#DE4227" d="M41.6-29.8C41.6-29.9,41.6-29.9,41.6-29.8L41.6-29.8L41.6-29.8z"/>
					<path fill="#DE4227" d="M41.9-29.3c-0.7-0.4-0.6-0.5-0.4-0.6L39.7-30L41.9-29.3z"/>
					<path fill="#DE4227" d="M38.4-10l0.6-0.2c0.8,0.6,0.5,0.8,1.3,0.6c-1.9-0.4,0.1-1.4-1.8-1.8l0.4-0.2c0,0.1,0.1,0.1,0,0.2
						c1-0.3-1.3-0.6-0.9-1.1c0.2-0.2,0.5-0.3,0.7-0.1l-0.4-0.5c0.1-0.1,0.4,0,0.3,0.1l0-0.7l0.1,0c-0.3-0.2-0.7-0.5-0.9-0.6
						c0.3-0.1,0.2,0.1,0.4,0.1l-0.4-0.5c0.5-0.1,0.9,0.3,0.8,0.6c2,0-0.4-0.4,0.8-0.9l0.2,0.4c1.1,0,0.8-0.4,1.5-0.6
						c-0.4,0-1.8,0.5-2.2,0c0.2-0.1,0.3-0.2-0.1-0.5c0.7,0.1,0.5-0.1,0.6-0.4l0.9,0.2c-0.2-0.3-0.7-0.4-1-0.7
						c0.2-0.3,0.9-0.2,1.4-0.2c0.2-0.5-1.2,0.1-1.2-0.5c0.4-0.4,0.1-0.7-0.3-1.4c0.4-0.2,0.5,0.2,0.8,0.1l-0.7-0.4
						c0-0.1,0.2,0,0.4,0c-0.2-0.3-0.9-0.2-1.1-0.6c-1-0.3,1.6-0.4,0.6-1.1c0.3-0.1,0.5,0.2,0.9,0.2c-0.6-0.7-0.4-0.6-1.3-1.3
						l0.7-0.3c-0.7,0.2-1.4-0.4-2-0.9c-0.3,0-0.6,0.1-0.8,0.1l-0.4-0.6c0.2,0,0.5,0.1,0.8,0.2c-0.1-0.1-0.1-0.1-0.2-0.1
						c0.4-0.1,0.9,0.1,1.3,0.3c-0.2,0-0.4,0.1-0.6,0.1c0.5,0.2,1.1,0.5,1.6,0.6c-0.1-0.1-0.2-0.1-0.2-0.2c0.1,0.1,0.3,0.1,0.4,0.1
						c0.1,0-0.1-0.1-0.3-0.2l1,0.1l-0.4-0.1l0.8-0.6c-0.9-0.7-2.3-1.5-2.5-2.4c0.7,0.4,1.2,0.3,2,0.5c-1,0,0.3,0.7,0,1.1
						c0.1-0.2,0.5-0.1,0.7,0L40-25.2c0.7,0.2,0.6-0.1,0.9-0.2c-1.4-0.1-0.8-0.8-1.2-1.1c0.5,0.1,0.9,0.2,0.7,0.6
						c1.1-0.2-1.5-0.9-0.6-1.1c0,0.1-0.1,0.1,0.1,0.2c-0.4-0.3,0.1-0.8,0.4-0.6l0,0.1c0.3-0.6,0.4-1.9-0.8-2.2
						c0.2,0,1.4,0.4,1.6,0.4l-3.8-1.9c1,0.3,3.5,0.4,4,1c0.2-0.1,0.4-0.3,0.1-0.6c-0.2,0.1-1.5,0-1.6-0.2c1.2-0.2,0.7-0.1,1.7-0.4
						c-0.2,0.1-1.8-0.4-1.7-0.6c0.2,0.1,1.6,0.3,1.7,0.4l-1.5-0.9c0.3,0.2,1.3,0.3,1.8,0.2c-0.3,0,0.1-0.5,0-0.7l-0.4,0.2
						c0.4-0.6-2.1-1.1-1.9-1.7c0.3,0.1,2,0.6,2.2,0.3c-0.8-0.3-3.7-1.4-4.2-2.1l0.5,0l-0.4-0.5c1.2,0.5,3.5,1.8,4.5,2.4
						c0.4-0.2,0.6,0,0.6-0.3c0.5-0.1,0.6,0.3,0.6,0.4l0.4-0.8c-0.9-0.1-0.8-0.8-1.6-1l0.8,1.1c-0.9-0.1-2.6-1-2.3-1.6
						c0.4-0.1,1.6,0.4,2,0.5c-0.3-0.1-0.5-0.7-0.3-0.7l0.5,0.4c0.4-0.3-1.1-0.8-0.2-1c0.1-0.1,1.3-0.2,0.7-0.3
						c-1.1,0-4.4-0.5-5.2-0.8c0.1,0,1.2-0.6,1.7-0.6c0.9-0.1,1.9,0.7,2.7,0.6c-0.3-0.1-0.5-0.2-0.6-0.3c0.2-0.1,0.8,0.2,0.7-0.1
						c-0.9-0.2,0.2-0.6-0.8-0.3c-0.2-0.4,0.3-0.3,0.3-0.7c-0.6,0-2-0.7-2.2-1.1c0.2,0.1,0.6,0,0.7,0c0.2-0.6,0.7-0.9,0.8-1.5
						c0.2,0,0.6-0.3,1-0.1c-0.2-0.1-0.5-0.2-0.5-0.4c0.9-0.2,0.1,0.4,1.1,0.3c-0.6-0.1-0.7-0.6-1-0.9c-0.9-0.1-0.3,0.6,0,0.9
						c-1.2-0.2-2.3-0.9-2.8-1.6c-0.2-0.5,0.8-0.1,0.6-0.2c0.4-0.9-1.9-1.1-1-1.8c0.8-0.2,1.5,0.2,2.1,0.2c0.2,0.5-0.6,0.6-0.6,0.8
						l0.4-0.3c0.2,0.2,0.4,0.5,0.1,0.6c0.7-0.2,0.4-1.6,1.1-2.2c-0.2-0.2-0.5-0.4-0.8-0.4l0.1,0.2c-0.6,0.1-0.8-0.6-1.1-0.3
						c-0.4-0.4-1-0.8-0.6-1.2l0.9,0c-0.3,0-0.6,0.2-0.3,0.4c-0.4-0.2,1.3-0.5,0.2-0.9l-0.6,0.2c-0.4-0.4-1.3-0.9-0.9-1.2
						c-0.9,0.1,0.1,0.1-0.9,0.2c1.3-0.1-0.2,1,1.2,0.8c-1.2,0.1-0.6,0.4-1.6,0.6c0.3,0,0.6-0.1,0.4,0.2c0.1,0,0.2,0.1,0.2,0.1
						c0,0,0,0,0,0l0,0c0,0,0,0,0,0c0.1-0.1,0.3-0.1,0.5-0.1c0.6,0.3,0.5,0.8,0.9,1c-0.2,0.2-0.3-0.1-0.6-0.1l0.5,0.3
						c-0.6-0.1-1.1,0.4-1.4-0.2l-0.1,0.4c-0.4,0.2-0.6,0.5-0.4,0.7c-0.2,0.2,0.6,0.6,0.2,0.3L38-45l-0.2,0c-0.2,0.6,0.8,1.5-0.4,2
						c0.1,0.2,0.3,0.5,0,0.8l-0.6,0c0.1,0.3-0.7,0.7-0.1,0.9c-1.5,0-0.6,1.3-0.9,1.7l0.7,0.1c-0.1,0.3,0,0.7,0.3,1.1l0.6,0.1
						c0.5,0.4-0.6,0.8-0.6,1.4c-0.2-0.1-0.1-0.2,0-0.3c-1.5,0.4,0.8,1.6-0.4,2c0.2,0.2,0.1,0.3-0.1,0.4c0,0,0,0,0,0c0,0,0,0,0,0.1
						c-0.1,0-0.3,0.1-0.4,0.1c0.2,0,0.3-0.1,0.4-0.1c0,0.1,0,0.3,0.2,0.5l-0.7-0.1c0,0,0,0,0,0c-0.3,0.1,0.3,0.2,0.8,0.2
						c0.1,0.1,0.2,0.2,0.4,0.3c-1.1-0.1,0.3,0.5-0.9,0.5c0.5,0.2,0.3,0.9,1.4,1.3c-0.2,0-0.2,0-0.2-0.1c-0.2,0.2-0.3,0.3,0,0.6
						l-0.9-0.1l1.1,0.6c-0.6,0.2-0.9,0.2-1.5-0.2c0.9,0.8,0.3,0.6,1.2,1.3L36.6-30c0,0.2,0.7,0.6,0.2,0.7c-1.1,0.2-0.6,2-1.7,2.9
						c1.7,0.1-0.8,0.3,0.4,0.6c-0.4,0-0.6,0.1-0.9-0.1c0.3,0.6-0.8,0.7,0.2,1.3c-0.4,0-0.5-0.2-0.8-0.2c0.1,0.1,0.3,0.2,0.1,0.3
						c-0.2,0-0.3-0.1-0.5-0.3c0,0.6,1.1,0.9,2.2,1.1c-0.6,0.2-0.5,0.3,0.2,0.7c-0.4,0-0.8,0.1-0.9-0.3c-0.1,0.2-0.8,1.1,0.1,1.3
						c-0.2,0-0.1,0.3,0,0.3c-0.1,0.4-0.2,0.4-0.2,0.9l0.2-0.1c1,0.4,0.2,0.4,0.2,0.8l-0.1,0c-0.9,0.6,0.3,0.4-0.7,1l0.7,0.1
						c1.4,0.4-1,0.5-0.5,1.1l0.4-0.1c0.4,0.3-2.1,0.3-2.3,0.5c-0.1,0-0.2-0.1-0.3-0.2c-1,0.5,0.9,0.3,1,0.8c-0.5,0-1.2-0.3-1.3,0
						c-0.4,0.1,1.3,1.2,0.4,1.5c0.4,0,0.8-0.1,1,0.2c0.1,0.4-1.6,0.7-0.5,1.2c-0.1,0-0.2,0-0.3,0c0.2,0.3,0.3,1,0.9,1.2
						c-2.4-0.2,0.8,1.9-1.3,1.5l0,0.8l-0.2-0.1c-0.2,0.5,0.2,0.8,0.7,1.1c-0.2,0.1-0.3,0-0.5-0.1c-0.6,0.7-0.5,0.8,0.5,1.6L32.1-8
						c0.4,0.2-1.3,0.9-0.6,1.8c-0.1,0-0.2-0.1-0.3-0.1c0.7,1-2.3,1.7,0.2,2.4l0.5,0.7C32.2-3.9,33-3,33.5-3.2c0.1,0.3-0.9,0.6-1,0.2
						l0.1,0c-1.3-0.3-0.6,0.8-1.5,0.7C31-0.9,30,0.4,29.8,1.8l1,0l-0.1,0.5c-0.3,0.1-0.8,0.1-0.7-0.3c-0.6,0.1,0.4,0.6,0.6,0.7
						c-0.5,0.6-1.2-0.4-1.2-0.2l0,0.3l0.1,0C30,2.9,30.4,3,30.3,3.4c-0.2,0.2-0.7,0.1-0.7,0.1c-0.1,0-0.1,0,0,0.2l-0.2,0.6l0.8-0.1
						c0.4,0.3-0.1,0.6,0.8,0.4c-1.5,0.2-0.8,2.1-1.2,2.3c0.6,0.4,0.5,0.8,0.4,1.2c0.2-0.1,1.1-0.1,1,0.3c-1.9-0.3-0.9,0.6-2.3,0.8
						C29.9,9,29,10.3,30.4,10c-0.2,0.3-0.7,0-1.2,0.2c0.6,0.8-0.6,1.7-0.4,2.7c0.2,0,0.6-0.1,1,0.1l-1.3,0.4
						c0.1,0.2,1.4,0.3,0.5,0.6c0.2,0,0.5-0.1,0.6,0c-0.7,0.9-0.5,1.9-0.4,2.9c0.1,1,0.1,1.9-1.1,2.9c0.5-0.3,0.5-0.1,0.5,0.1
						c0.1-0.1,0.6,0,1,0l-1,0.8c0.9,0.2,0,0.9,0.9,1l-0.2-0.3c1.1,0.3,2.4-0.5,3.7-0.4c-1.2-0.4,1.8-0.9,0.1-1.6
						c0.3-0.1,0.4,0.1,0.8,0.1c-0.6-0.2-0.7-0.4-0.4-0.7l0.1,0c-0.1-1,0.4-1.4,0.9-2.4l-0.7,0c0.1-0.2,0.3-0.3,0.5-0.4
						c-1-0.3-0.1,0.6-1.2,0.4c1.4-0.2,0.1-1.6,1.7-1.7c0-0.4-0.8,0.1-0.8-0.3l0.4-0.1L34,14.2c0.1-0.2,0.6-0.3,1-0.3
						c0,0.1,0.1,0.2,0.1,0.2c0.5-0.3-0.1-0.9,0.1-0.9l-0.3,0.3c-0.3-1,0.3-2.1-0.5-3.1l-0.3,0c-0.5-0.8,0.4-0.5,0.2-1.4l0.1,0
						C34.1,8.9,34,8.7,34,8.5c0.3,0.2,0.8-0.3,1.1,0c-0.5-0.8-0.5-0.4-1.6-1.1l0.5-0.1c-0.5-0.2-0.7-0.3-0.8-0.7
						c0.4,0.4,0.8-0.2,1.4,0.3c1.2-0.7-1-1.4,0.7-1.5C34,4.9,34.5,6,34.2,5.8c-0.5,0.1-1-0.4-0.9-0.7c0.1-0.3,1.9-0.2,2-0.9
						c0,0.1,0.1,0.1,0.1,0.1c0.4-0.2-0.4-0.5,0.2-0.8c-0.9-0.3,0.1-0.4-1-0.6l0.2,0.6c-0.2-0.4-1.5-0.9-0.8-1.4
						c0.2,0.1,0.5,0.3,0.6,0.4c0.3-0.1-0.2-0.3,0.2-0.5C35.9,2.4,35,3,35.8,3.5C36.3,3.4,35,2.7,36.2,3c-1.5-0.5,0.3-0.6-0.8-1.2
						l0.7,0.1c-0.1-0.1-0.4-0.3-0.4-0.4l0.8,0.4c-0.7-0.5,0.7-0.6,0.4-1c-0.1,0.7-0.8,0-1.4,0.3c-0.8-1,1.8-0.3,1.7-1.3
						C37.3,0,36.7,0.3,36.5,0c0.2-0.2,0.5-0.4,0.8-0.4c0-0.7-0.7,0-1.1-0.3c0.8-0.1-0.3-0.4-0.5-0.7l0.7,0.1c0.6-0.7-1.4-0.4-0.7-1
						l0.9,0.4l-0.2-0.4l0.8,0.2c-0.5-0.5-0.3-0.6-0.1-0.9c-0.5,0-1.2-0.2-1.2-0.6c0.4-0.2,0.6,0.2,0.6-0.3c0.4,0.2,0.9,0.4,0.3,0.5
						c0.2,0.1,0.4,0.2,0.6,0.2c0.5-0.2,0.2-0.6,0.2-0.8c0,0.1-0.1,0.1-0.2,0.2l-0.8-0.8c0.3-0.1,0.5,0.1,0.6,0.2
						c0-0.2-0.3-0.3-0.4-0.5c0.5,0.1,1.1,0.2,1.3,0.6l-0.5-0.8c0.2,0,0.7-0.2,0.9-0.1c0.4-0.3-0.9-1.1-0.4-1.5
						c-0.1,0-0.2-0.1-0.3-0.2c0.2-0.4,0.9-0.7,0.3-1.4l1-0.1c-0.1-0.5-1.3,0.2-1.6-0.6c-0.2-0.6,0.9,0,1.2-0.2
						c-0.4-0.3-1.4-0.9-0.5-1.3C38.5-10.3,38.3-10.2,38.4-10z M38.9-15.3c0.1,0.1,0.5,0.4,0.1,0.4C38.3-15.2,38.7-15.2,38.9-15.3z
						 M38.9-23.5c0.2,0.1,0.1,0.2-0.2,0.3C38.6-23.3,38.7-23.4,38.9-23.5z M38.3-46.4C38.3-46.4,38.3-46.4,38.3-46.4
						C38-46.2,38.1-46.3,38.3-46.4z M38.6-46.8c-0.1-0.1-0.2-0.1-0.3-0.1c0.2,0.1,0.2,0.2,0.1,0.3C38.6-46.6,38.8-46.6,38.6-46.8z
						 M29.9,3.6l0.2-0.1C30.2,3.8,30.1,3.7,29.9,3.6z"/>
					<path fill="#DE4227" d="M39.6-22.4c-0.1,0-0.2,0-0.4,0C39.4-22.4,39.5-22.4,39.6-22.4z"/>
					<path fill="#DE4227" d="M38.2-6.8C38.2-6.8,38.2-6.8,38.2-6.8c0,0,0.1,0,0.1,0.1L38.2-6.8z"/>
					<path fill="#DE4227" d="M43.1-38.6c-0.1,0.1-0.2,0.1-0.4,0.1C42.9-38.4,43.1-38.5,43.1-38.6z"/>
					<path fill="#DE4227" d="M37.8-49.4l0.1,0.3c0-0.1,0.1-0.2,0.3-0.2C38.1-49.4,37.8-49.3,37.8-49.4z"/>
					<path fill="#DE4227" d="M42.4-51.5c-0.1-0.1,0-0.1-0.1-0.1l-0.3,0C42-51.5,42.2-51.3,42.4-51.5z"/>
					<path fill="#DE4227" d="M40.1-49.4c0.6,0.1,0.4-0.2,0.3-0.4c0,0,0,0,0,0C39.6-49.9,39.9-49.7,40.1-49.4z"/>
					<path fill="#DE4227" d="M40.4-49.8c0-0.1,0-0.1,0-0.2C40.1-50.1,40.4-50,40.4-49.8z"/>
					<path fill="#DE4227" d="M38.3-47.5c0.2-0.1-0.7-0.2-0.5-0.2C37.2-47.9,38.6-46.9,38.3-47.5z"/>
					<polygon fill="#DE4227" points="42,-49.3 41.3,-49.3 41.8,-49.1 					"/>
					<path fill="#DE4227" d="M41.3-47.7l0.2-0.3c-0.1,0-0.2-0.1-0.2-0.1C41.2-47.9,41.1-47.7,41.3-47.7z"/>
					<path fill="#DE4227" d="M41.3-48.1c0-0.1,0-0.2-0.1-0.3C41.2-48.4,41.2-48.2,41.3-48.1z"/>
					<polygon fill="#DE4227" points="42.2,-48.8 42,-48.7 41.9,-48.5 					"/>
					<path fill="#DE4227" d="M40.6-44.1l0.1,0.4c0.2,0.1,0.4,0,0.3-0.2C40.9-44,40.8-44.1,40.6-44.1z"/>
					<path fill="#DE4227" d="M42.7-44.9c-0.2,0.1-0.3,0.1-0.6,0.1l0.9,0.1L42.7-44.9z"/>
					<path fill="#DE4227" d="M42.7-43.8c0.2,0.1,0.6,0.6,0.6,0.2C43.1-43.7,43-44.1,42.7-43.8z"/>
					<polygon fill="#DE4227" points="40.7,-38.5 40.7,-38.6 39.2,-38.8 					"/>
					<path fill="#DE4227" d="M43.2-32.9c0.4-0.4-0.9-0.3-0.4-0.6c-0.3-0.2-0.4,0.3-0.7,0.1C42.4-33.1,42.2-33,43.2-32.9z"/>
					<path fill="#DE4227" d="M42.1-33.4c0-0.1-0.1-0.1-0.2-0.2C42-33.5,42.1-33.5,42.1-33.4z"/>
					<polygon fill="#DE4227" points="27.9,21.2 27.6,21.5 28.1,21.3 					"/>
					<path fill="#DE4227" d="M28.9,21.8L28,21.8l0.8,0.2C28.8,21.9,28.7,21.8,28.9,21.8z"/>
					<path fill="#DE4227" d="M40.9-15.7l-0.2-0.1c-0.2,0-0.3,0.1-0.3,0.2L40.9-15.7z"/>
					<polygon fill="#DE4227" points="39.5,-12.1 39.5,-12.2 38.7,-12.2 					"/>
					<path fill="#DE4227" d="M40-8.8c0.1-0.1-0.1-0.3,0-0.4C40-8.9,38.9-8.9,40-8.8z"/>
				</g>
			</g>
		</g>
	</g>
</g>
<g>
	<g>
		<g>
			<g>
				<g>
					<path fill="#DE4227" d="M51.7-53c0.1-0.1-0.5-0.1-0.6-0.1C51.2-52.8,51.9-53,51.7-53z"/>
					<polygon fill="#DE4227" points="53,-50.5 52.8,-50.6 53.4,-50.2 					"/>
					<path fill="#DE4227" d="M53-48.2c1-0.2-0.2-0.8,0.2-1.2l0.2-0.1l-0.8-0.2C52.8-49.2,53.3-48.6,53-48.2z"/>
					<path fill="#DE4227" d="M50.8-47.1c0.4-0.1,0.3,0.3,0.1-0.3c0,0-0.1,0-0.1,0C50.8-47.3,50.8-47.2,50.8-47.1z"/>
					<path fill="#DE4227" d="M50.8-47.3C50.8-47.5,50.5-47.2,50.8-47.3L50.8-47.3z"/>
					<path fill="#DE4227" d="M51-46.2l-0.3-0.3c-0.2,0.1-0.3,0.3-0.5,0.2C50.4-46,50.6-46,51-46.2z"/>
					<path fill="#DE4227" d="M51.8-45.9L51.6-46C51.5-46,51.5-46,51.8-45.9z"/>
					<path fill="#DE4227" d="M51.3-46.4l0.3,0.4c0.2,0,0.5,0-0.1-0.2C51.8-46.2,51.5-46.2,51.3-46.4z"/>
					<path fill="#DE4227" d="M51.5-46.6c0.2-0.2,0.4-0.4,0.7-0.1C52-47.3,51.3-47.2,51.5-46.6z"/>
					<path fill="#DE4227" d="M54-48.1l0.3-0.2L54-48.5C54.2-48.4,53.7-48.1,54-48.1z"/>
					<path fill="#DE4227" d="M50.4-44.3c0.2,0,0.6-0.1,0.9-0.1L51-44.6C50.9-44.5,50.7-44.3,50.4-44.3z"/>
					<path fill="#DE4227" d="M51.3-44.4l0.3,0.4C51.7-44.3,51.5-44.4,51.3-44.4z"/>
					<polygon fill="#DE4227" points="52.9,-45.8 52.1,-46.4 52.9,-45.7 					"/>
					<polygon fill="#DE4227" points="50.3,-42.9 49.8,-43.2 50.5,-42.8 					"/>
					<path fill="#DE4227" d="M50.3-42.1c-0.4-0.2-0.7,0.2-1,0c0.1,0.2,0.4,0.5,0.7,0.7C49.9-41.6,50-41.8,50.3-42.1z"/>
					<path fill="#DE4227" d="M50.5-41.1c-0.1-0.1-0.3-0.2-0.4-0.3C50.1-41.3,50.3-41.2,50.5-41.1z"/>
					<path fill="#DE4227" d="M51.5-43.4c-0.1,0-0.5,0.1-0.6,0.2l0.6-0.1C51.4-43.3,51.5-43.3,51.5-43.4z"/>
					<path fill="#DE4227" d="M51.5-43.3L51.5-43.3c0,0.2-0.1,0.3-0.1,0.3C51.4-43,51.4-43.1,51.5-43.3z"/>
					<path fill="#DE4227" d="M51.5-43.4L51.5-43.4C51.5-43.4,51.5-43.4,51.5-43.4z"/>
					<path fill="#DE4227" d="M52.3-44.9c0.3,0.2,0.7,0.7,1.2,0.3C53.1-44.8,52.8-44.5,52.3-44.9z"/>
					<path fill="#DE4227" d="M52.2-43.6l0.2-0.4c-0.2,0-0.4,0.1-0.6-0.1L52.2-43.6z"/>
					<polygon fill="#DE4227" points="52.4,-43.4 52.2,-43.6 52.2,-43.4 					"/>
					<path fill="#DE4227" d="M51.1-41.6c0.3,0.2,0.3,0.4,0.3,0.6c0.1-0.2,0.2-0.4,0.2-0.6C51.4-41.8,51.1-41.9,51.1-41.6z"/>
					<path fill="#DE4227" d="M51.3-42.4L51.3-42.4C51.4-42.4,51.4-42.4,51.3-42.4z"/>
					<path fill="#DE4227" d="M51.3-39.1c0,0,0.1,0,0.1,0L51.3-39.1L51.3-39.1z"/>
					<path fill="#DE4227" d="M51.7-41.7c0.1-0.2,0-0.3-0.2-0.4c0.1,0.1,0.1,0.3,0.1,0.4C51.7-41.7,51.8-41.7,51.7-41.7z"/>
					<path fill="#DE4227" d="M50.7-40.5c0.1-0.1,0.2-0.2,0.4-0.3C50.9-40.7,50.6-40.5,50.7-40.5z"/>
					<path fill="#DE4227" d="M51.2-42.3C51.2-42.4,51.2-42.4,51.2-42.3C51-42.3,51.1-42.3,51.2-42.3z"/>
					<path fill="#DE4227" d="M51.2-42.3c0.1,0.1,0.2,0.2,0.4,0.2c0-0.1-0.1-0.2-0.2-0.3C51.3-42.4,51.3-42.4,51.2-42.3z"/>
					<path fill="#DE4227" d="M55.1-38.2c-0.6-0.1-1-0.6-0.4-0.9c-0.4-0.4-2.3-0.3-3.3-0.1c0.2,0,0.5,0.1,0.8,0.4
						c0.3-0.1,0.8-0.8,1.3-0.4c0.3,0.5-0.2,0.4-0.5,0.6c0.7-0.1,1,0.7,2,0.7l-0.3-0.5C54.7-38.3,54.9-38.1,55.1-38.2z"/>
					<path fill="#DE4227" d="M51.5-39.9L51.4-40c-0.1,0.2-0.3,0.3-0.8,0.5c0.3,0.3,0.5,0.3,0.6,0.4L51.5-39.9L51.5-39.9z"/>
					<path fill="#DE4227" d="M51.5-40.7c0.6,0.2,0.8,0.5,1.5,0.4c0-0.5-0.5-0.4-0.7-0.6C52.3-40.2,51.9-41.2,51.5-40.7
						c0-0.1,0-0.3-0.1-0.4c-0.1,0.1-0.2,0.2-0.3,0.3l0,0l0,0l0,0c0.1,0,0.1,0,0.1,0c0,0,0,0,0,0C51.3-40.7,51.4-40.7,51.5-40.7
						c-0.1,0.2-0.2,0-0.2,0c0,0-0.1,0-0.1,0l0,0l0.3,0.7C51.5-40.2,51.5-40.4,51.5-40.7z"/>
					<path fill="#DE4227" d="M54.8-44.1c-0.1,0-0.1,0-0.1,0C54.7-44.1,54.8-44.1,54.8-44.1z"/>
					<path fill="#DE4227" d="M54.4-43.9c-0.1-0.1-0.3-0.1-0.2-0.3c0.2-0.1,0.3,0,0.5,0c-0.2-0.1-0.4-0.4-0.7-0.1l0.1,0.1
						c-0.2,0.3-1,0.6-1.1,0.6C53.4-43.6,53.8-43.7,54.4-43.9z"/>
					<path fill="#DE4227" d="M53.1-42.2l0.3,0.6l0.5-0.3l-0.3,0C53.7-42.2,53.3-42.2,53.1-42.2z"/>
					<polygon fill="#DE4227" points="51,-39.1 50.3,-39.2 51.2,-38.8 					"/>
					<polygon fill="#DE4227" points="51,-38.3 50.4,-38.4 50.7,-38.2 					"/>
					<path fill="#DE4227" d="M50.6,6.9l0.1,0.2C50.7,7,50.6,6.9,50.6,6.9z"/>
					<path fill="#DE4227" d="M50.8,5.6l-0.3-0.1C50.7,5.6,50.8,5.7,50.8,5.6z"/>
					<path fill="#DE4227" d="M48.5-19.2c-0.6,0.2-1.4,0.3-0.8,0.4l0.6,0C48.2-19,48.3-19.1,48.5-19.2z"/>
					<path fill="#DE4227" d="M49.7-5.5c0.1,0,0.1,0,0.2,0c-0.2-0.1-0.4-0.2-0.5-0.3C49.4-5.7,49.6-5.6,49.7-5.5z"/>
					<path fill="#DE4227" d="M52.1-4.8l-0.5,0.3C51.8-4.6,52-4.7,52.1-4.8z"/>
					<path fill="#DE4227" d="M49.8,14l0.6,0.3C50.4,14.1,50.1,14.1,49.8,14z"/>
					<path fill="#DE4227" d="M50.3-30.3c-0.3,0.2-0.4,0.4-0.4,0.5C50.3-30.1,50.8-30.2,50.3-30.3z"/>
					<path fill="#DE4227" d="M44.3,5.2c0.1,0.1,0.2,0.2,0.3,0.2C44.5,5.2,44.4,5.2,44.3,5.2z"/>
					<path fill="#DE4227" d="M49.8-29.2c0.1,0,0.1-0.1,0.2-0.1c-0.1-0.2-0.1-0.3-0.1-0.5C49.6-29.7,49.4-29.5,49.8-29.2z"/>
					<path fill="#DE4227" d="M44.4,38.9C44.4,38.9,44.4,38.9,44.4,38.9C44.4,39,44.5,38.9,44.4,38.9z"/>
					<path fill="#DE4227" d="M37.8,46c0-0.1,0-0.2,0-0.3C37.7,45.7,37.8,45.8,37.8,46z"/>
					<path fill="#DE4227" d="M50.4-35.2C50.4-35.4,50.3-35.3,50.4-35.2L50.4-35.2z"/>
					<path fill="#DE4227" d="M52.9-35.8c0.1,0,0.1,0.1,0.3,0.1C53-35.7,52.9-35.7,52.9-35.8z"/>
					<path fill="#DE4227" d="M53.3-27C53.3-27,53.3-27,53.3-27C53.5-27,53.4-27,53.3-27z"/>
					<path fill="#DE4227" d="M50.7-35.4c-0.1,0.1-0.2,0.1-0.2,0.2C50.5-35.3,50.6-35.3,50.7-35.4z"/>
					<path fill="#DE4227" d="M50.4-35.4c0-0.1,0.1-0.1,0.1-0.1C50.4-35.6,50.3-35.6,50.4-35.4z"/>
					<path fill="#DE4227" d="M50.4-35c0-0.1,0-0.2,0.1-0.3c0,0-0.1,0-0.1,0C50.4-35.2,50.4-35.1,50.4-35z"/>
					<path fill="#DE4227" d="M45.1,25.3C45.1,25.3,45.1,25.3,45.1,25.3C45.3,25.5,45.3,25.5,45.1,25.3z"/>
					<path fill="#DE4227" d="M54-13.8C54-13.8,54-13.8,54-13.8L54-13.8L54-13.8z"/>
					<path fill="#DE4227" d="M54.4-13.1c-0.7-0.4-0.6-0.5-0.4-0.7l-1.8-0.1L54.4-13.1z"/>
					<path fill="#DE4227" d="M50.2,10l0.6-0.3c0.8,0.7,0.4,1,1.3,0.7c-1.9-0.4,0.1-1.7-1.8-2.1l0.5-0.2c0,0.1,0.1,0.1,0,0.2
						c1-0.4-1.3-0.7-0.9-1.3c0.2-0.2,0.5-0.3,0.7-0.1l-0.4-0.6c0.1-0.1,0.4,0,0.3,0.1l0-0.8l0.1,0c-0.3-0.2-0.7-0.5-0.9-0.7
						C50,4.7,49.9,5,50.2,5l-0.4-0.5c0.5-0.1,0.9,0.4,0.8,0.7c2-0.1-0.4-0.5,0.9-1.2l0.2,0.5c1.1-0.1,0.8-0.5,1.6-0.8
						c-0.4,0-1.9,0.6-2.2,0.1c0.2-0.1,0.3-0.3-0.1-0.6c0.7,0.1,0.6-0.2,0.6-0.5l0.9,0.2c-0.2-0.4-0.6-0.5-1-0.7
						c0.2-0.4,0.9-0.3,1.5-0.3c0.3-0.6-1.2,0.2-1.2-0.6c0.4-0.5,0.1-0.9-0.3-1.6c0.4-0.3,0.5,0.2,0.8,0.1l-0.6-0.5
						c0-0.1,0.2,0,0.4,0c-0.2-0.3-0.9-0.2-1-0.7c-1-0.3,1.6-0.6,0.6-1.3c0.3-0.1,0.5,0.2,0.9,0.2c-0.6-0.9-0.4-0.7-1.3-1.5l0.7-0.4
						c-0.7,0.2-1.4-0.4-2-0.9c-0.3,0.1-0.7,0.1-0.8,0.2l-0.3-0.8C48.7-6.1,49-6,49.3-5.8c-0.1-0.1-0.1-0.1-0.2-0.2
						c0.4-0.2,0.9,0,1.3,0.3c-0.2,0-0.4,0.1-0.6,0.1C50.4-5.2,51-5,51.5-4.9c-0.1-0.1-0.2-0.2-0.2-0.3C51.4-5.1,51.5-5,51.6-5
						c0.1,0-0.1-0.1-0.3-0.3l1,0L52-5.4l0.8-0.8c-0.9-0.8-2.3-1.6-2.5-2.7c0.7,0.4,1.2,0.3,2,0.5c-1,0.1,0.2,0.8,0,1.3
						c0.1-0.3,0.5-0.1,0.7,0l-0.7-1.1C53-8,52.9-8.3,53.2-8.4c-1.4-0.1-0.8-0.9-1.2-1.3c0.5,0.1,0.9,0.2,0.7,0.7
						c1.1-0.3-1.5-1-0.5-1.3c0,0.1-0.1,0.2,0.1,0.2c-0.4-0.3,0.1-0.9,0.5-0.7l0,0.1c0.3-0.7,0.4-2.2-0.7-2.6c0.2,0,1.4,0.4,1.6,0.4
						l-3.8-2c1,0.3,3.5,0.3,4,1c0.2-0.2,0.4-0.3,0.1-0.8c-0.2,0.1-1.5,0-1.6-0.1c1.2-0.2,0.7-0.2,1.7-0.6c-0.2,0.1-1.8-0.3-1.7-0.6
						c0.2,0.1,1.6,0.3,1.7,0.4l-1.4-1c0.3,0.2,1.3,0.3,1.8,0.2c-0.3,0,0.1-0.6,0-0.8L54.2-17c0.4-0.8-2.1-1.2-1.9-1.9
						c0.3,0.2,2,0.6,2.2,0.2c-0.8-0.3-3.7-1.5-4.2-2.3l0.5-0.1l-0.4-0.6c1.2,0.5,3.5,1.9,4.4,2.6c0.4-0.2,0.6,0,0.6-0.5
						c0.5-0.1,0.6,0.4,0.6,0.5l0.5-1c-0.9-0.1-0.8-1-1.6-1l0.8,1.3c-0.9-0.1-2.6-1.1-2.3-1.8c0.4-0.1,1.7,0.4,2,0.4
						C55-21.3,54.8-22,55.1-22l0.5,0.4c0.4-0.4-1.1-0.9-0.2-1.2c0.1-0.2,1.3-0.3,0.7-0.4c-1.1,0.1-4.4-0.3-5.2-0.7
						c0.1,0,1.2-0.7,1.7-0.9c0.9-0.2,1.9,0.7,2.7,0.6c-0.3,0-0.6-0.3-0.6-0.3c0.2-0.1,0.8,0.2,0.7-0.2c-0.9-0.2,0.2-0.8-0.8-0.3
						c-0.2-0.4,0.3-0.4,0.3-0.8c-0.6,0.1-2-0.7-2.3-1.1c0.2,0.1,0.6,0,0.7,0c0.2-0.8,0.7-1.1,0.8-1.9c0.2,0,0.6-0.4,1-0.1
						c-0.2-0.1-0.5-0.3-0.5-0.5c0.9-0.3,0.1,0.5,1.1,0.3c-0.5-0.1-0.7-0.7-1-1.1c-0.9,0-0.2,0.7,0.1,1.1c-1.2-0.2-2.3-0.9-2.8-1.7
						c-0.2-0.6,0.8-0.2,0.6-0.3c0.3-1.1-2-1.2-1-2.1c0.8-0.3,1.5,0.2,2.1,0.1c0.2,0.5-0.6,0.7-0.6,1l0.4-0.4
						c0.2,0.2,0.4,0.5,0.1,0.7c0.7-0.2,0.3-1.9,1.1-2.7c-0.2-0.2-0.5-0.5-0.8-0.4l0.1,0.3c-0.6,0.2-0.8-0.6-1.1-0.3
						c-0.4-0.4-1-0.9-0.6-1.4l0.9,0c-0.3,0-0.6,0.3-0.3,0.5c-0.4-0.3,1.3-0.7,0.2-1l-0.6,0.3c-0.4-0.4-1.3-1-0.9-1.4
						c-0.9,0.1,0.1,0.1-0.9,0.3c1.3-0.2-0.2,1.2,1.2,0.8c-1.2,0.2-0.6,0.5-1.6,0.9c0.3,0,0.6-0.1,0.4,0.3c0.1,0,0.2,0.1,0.2,0.1
						c0,0,0,0,0,0l0,0c0,0,0,0,0,0c0.1-0.1,0.3-0.1,0.5-0.2c0.6,0.3,0.5,0.9,0.9,1.1c-0.2,0.2-0.3-0.1-0.6,0l0.5,0.4
						c-0.6,0-1.1,0.5-1.4-0.1l-0.1,0.5c-0.4,0.2-0.6,0.6-0.3,0.9c-0.2,0.2,0.6,0.7,0.2,0.4l0.3,0.8l-0.2,0c-0.2,0.7,0.9,1.7-0.4,2.4
						c0.1,0.3,0.3,0.6,0,1l-0.6,0c0.1,0.4-0.7,0.9-0.1,1.1c-1.5,0.1-0.6,1.5-0.9,2.1l0.7,0.1c-0.1,0.4,0,0.8,0.3,1.3l0.6,0.1
						c0.5,0.5-0.6,1-0.6,1.7c-0.2-0.1-0.1-0.2,0-0.3c-1.5,0.6,0.7,1.8-0.4,2.4c0.2,0.2,0.1,0.3-0.1,0.4c0,0,0,0,0-0.1c0,0,0,0,0,0.1
						c-0.1,0.1-0.3,0.1-0.4,0.2c0.2,0,0.3-0.1,0.4-0.2c0,0.1,0,0.4,0.2,0.6l-0.7,0c0,0,0,0,0,0.1c-0.3,0.2,0.3,0.2,0.8,0.2
						c0.1,0.1,0.2,0.2,0.4,0.3c-1.1,0,0.3,0.6-0.9,0.6c0.5,0.2,0.2,1.1,1.4,1.4c-0.2,0-0.2,0-0.2-0.1c-0.2,0.2-0.3,0.4-0.1,0.7
						l-0.9-0.1l1.1,0.7c-0.6,0.2-0.9,0.3-1.5-0.1c0.9,0.9,0.3,0.7,1.2,1.5L49-13.7c0,0.2,0.7,0.7,0.2,0.8c-1.1,0.3-0.6,2.4-1.8,3.5
						C49-9.4,46.5-9,47.8-8.7c-0.4,0-0.6,0.1-0.9-0.1C47.1-8.1,46-8,47-7.3c-0.4,0-0.5-0.2-0.8-0.2c0.1,0.1,0.3,0.3,0.1,0.3
						c-0.2,0-0.3-0.2-0.5-0.3c-0.1,0.7,1.1,1,2.2,1.2c-0.6,0.2-0.5,0.4,0.1,0.8c-0.4,0-0.8,0.2-0.9-0.3c-0.1,0.2-0.8,1.3,0.1,1.5
						c-0.2,0-0.1,0.3,0,0.4c-0.2,0.5-0.2,0.5-0.3,1.1l0.2-0.1c1,0.4,0.2,0.5,0.2,0.9l-0.1,0c-1,0.8,0.3,0.5-0.8,1.2l0.7,0.1
						c1.4,0.4-1,0.7-0.6,1.3l0.4-0.1C47.5,0.9,45,1,44.8,1.2c-0.1,0-0.2-0.1-0.3-0.3c-1,0.6,0.9,0.3,0.9,0.9c-0.5,0-1.2-0.4-1.3,0
						c-0.4,0.1,1.3,1.4,0.3,1.8c0.4,0,0.8-0.1,1,0.2c0.1,0.4-1.6,0.9-0.5,1.5c-0.1,0-0.2,0-0.3,0c0.2,0.4,0.3,1.1,0.9,1.4
						c-2.4-0.1,0.7,2.2-1.4,1.8l-0.1,1l-0.2-0.1c-0.3,0.6,0.2,0.9,0.7,1.2c-0.2,0.1-0.4,0-0.5-0.1c-0.6,0.8-0.5,0.9,0.4,1.9
						l-0.7-0.1c0.4,0.3-1.3,1.1-0.7,2.1c-0.1,0-0.2-0.1-0.3-0.2c0.6,1.2-2.4,2,0,2.9l0.5,0.8c0.4-0.8,1.1,0.4,1.5,0.1
						c0.1,0.4-0.9,0.7-1,0.3l0.1,0c-1.3-0.4-0.7,1-1.6,0.7c-0.3,1.7-1.4,3.2-1.8,4.7l1.1,0l-0.2,0.5c-0.3,0.1-0.8,0-0.7-0.4
						c-0.6,0.1,0.3,0.8,0.6,0.8c-0.6,0.7-1.1-0.6-1.2-0.3l0,0.3l0.1,0c0.4,0.3,0.8,0.5,0.6,0.9c-0.3,0.3-0.7,0-0.7,0.1
						c-0.1,0-0.1,0-0.1,0.2l-0.2,0.7l0.9-0.1c0.3,0.4-0.2,0.6,0.8,0.5c-1.5,0.2-1,2.5-1.5,2.7c0.5,0.5,0.4,1,0.2,1.5
						c0.2-0.1,1.1,0,0.9,0.4c-1.8-0.5-1,0.7-2.4,0.9c0.9-0.2,0,1.4,1.4,1c-0.2,0.4-0.7-0.1-1.2,0.1c0.6,1-0.8,2-0.7,3.2
						c0.2,0,0.7-0.1,1,0.2l-1.3,0.5c0.1,0.2,1.4,0.4,0.5,0.7c0.2,0,0.5-0.1,0.6,0.1c-0.7,1.1-0.5,2.3-0.5,3.5c0,1.2,0,2.3-1.2,3.5
						c0.5-0.3,0.5-0.1,0.5,0.1c0.1-0.2,0.6,0,1,0l-0.9,1c0.9,0.2,0.1,1.1,1,1.1l-0.2-0.3c1.1,0.4,2.4-0.6,3.7-0.6
						c-1.2-0.4,1.8-1.1,0.1-1.9c0.3-0.2,0.4,0.1,0.8,0.1c-0.6-0.2-0.7-0.4-0.4-0.8l0.1,0c-0.2-1.1,0.5-1.6,1-2.8l-0.7,0
						c0.1-0.3,0.3-0.3,0.5-0.4c-1-0.4-0.1,0.8-1.2,0.4c1.4-0.3,0.2-1.9,1.7-2c0-0.4-0.8,0-0.7-0.4l0.4-0.1l-0.5-0.2
						c0.1-0.3,0.7-0.3,1-0.3c0,0.1,0.1,0.2,0.1,0.3c0.5-0.3,0-1,0.1-1.1l-0.3,0.4c-0.2-1.2,0.5-2.5-0.2-3.7l-0.3,0
						c-0.5-0.9,0.4-0.6,0.3-1.6l0.1,0c-0.3-0.2-0.4-0.5-0.3-0.8c0.3,0.3,0.8-0.3,1.1,0.1c-0.5-1-0.4-0.5-1.5-1.4l0.5,0
						c-0.4-0.3-0.7-0.4-0.7-0.9c0.4,0.5,0.8-0.1,1.3,0.4c1.3-0.8-0.9-1.7,0.9-1.8c-1.3-0.7-1,0.7-1.2,0.4c-0.5,0.1-1-0.6-0.8-0.9
						c0.1-0.3,1.9-0.2,2.1-0.9c0,0.1,0.1,0.1,0.1,0.2c0.4-0.2-0.4-0.7,0.3-0.9c-0.8-0.4,0.1-0.5-0.9-0.7l0.1,0.8
						c-0.2-0.5-1.4-1.1-0.6-1.7c0.2,0.1,0.5,0.4,0.6,0.5c0.4-0.1-0.1-0.4,0.2-0.6c1.1,0.3,0.1,0.9,0.8,1.5c0.5-0.1-0.6-1,0.5-0.5
						c-1.4-0.6,0.4-0.7-0.7-1.5l0.6,0.2c-0.1-0.1-0.4-0.3-0.3-0.5l0.8,0.5c-0.6-0.6,0.8-0.7,0.5-1.2c-0.2,0.9-0.8,0-1.4,0.3
						c-0.6-1.3,1.9-0.2,1.8-1.5c0.1,0.2-0.5,0.5-0.8,0.2c0.2-0.2,0.5-0.4,0.9-0.5c0-0.8-0.7,0-1-0.5c0.9-0.1-0.2-0.5-0.4-0.9
						l0.7,0.1c0.6-0.8-1.3-0.5-0.6-1.2l0.8,0.6l-0.1-0.5l0.7,0.3c-0.5-0.6-0.3-0.7,0-1.1c-0.5,0-1.2-0.3-1.1-0.7
						c0.5-0.2,0.6,0.3,0.6-0.3c0.4,0.2,0.9,0.5,0.2,0.6c0.2,0.1,0.4,0.2,0.6,0.3c0.5-0.2,0.3-0.7,0.3-0.9c0,0.1-0.1,0.2-0.2,0.2
						l-0.7-1c0.3-0.1,0.5,0.1,0.6,0.2c0-0.2-0.3-0.4-0.3-0.6c0.5,0.2,1.1,0.3,1.3,0.7l-0.4-0.9c0.2,0,0.7-0.3,0.9-0.1
						c0.4-0.4-0.8-1.3-0.3-1.8c-0.1-0.1-0.2-0.1-0.2-0.3c0.2-0.5,1-0.9,0.4-1.7l1.1-0.2c-0.1-0.6-1.3,0.3-1.5-0.7
						c-0.2-0.7,0.9-0.1,1.2-0.2c-0.4-0.4-1.3-1.1-0.4-1.5C50.3,9.7,50.1,9.8,50.2,10z M50.9,3.7C51,3.8,51.4,4.1,51,4.1
						C50.3,3.9,50.7,3.8,50.9,3.7z M51.1-6.1c0.2,0.1,0.1,0.3-0.2,0.4C50.9-5.9,50.9-6,51.1-6.1z M50.7-33.4
						C50.7-33.3,50.7-33.3,50.7-33.4C50.5-33.1,50.6-33.2,50.7-33.4z M51.1-33.9c-0.1-0.1-0.2-0.1-0.3-0.1c0.2,0.1,0.2,0.2,0.1,0.3
						C51.1-33.6,51.2-33.7,51.1-33.9z M40.3,26.1l0.2-0.1C40.6,26.3,40.5,26.2,40.3,26.1z"/>
					<path fill="#DE4227" d="M51.9-4.9c-0.1,0-0.2,0-0.4,0C51.6-4.8,51.7-4.8,51.9-4.9z"/>
					<path fill="#DE4227" d="M49.7,14C49.7,14,49.7,14,49.7,14c0,0,0.1,0.1,0.1,0.1L49.7,14z"/>
					<path fill="#DE4227" d="M55.7-24.4c-0.1,0.1-0.2,0.1-0.4,0.2C55.5-24.2,55.6-24.2,55.7-24.4z"/>
					<path fill="#DE4227" d="M50.3-37l0.1,0.4c0-0.2,0.1-0.2,0.3-0.3C50.5-36.9,50.3-36.8,50.3-37z"/>
					<path fill="#DE4227" d="M54.7-39.7c-0.1-0.1,0-0.1-0.1-0.2l-0.3,0C54.3-39.7,54.6-39.5,54.7-39.7z"/>
					<path fill="#DE4227" d="M52.6-37.1c0.6,0,0.4-0.2,0.3-0.5c0,0,0,0,0,0C52.1-37.6,52.3-37.4,52.6-37.1z"/>
					<path fill="#DE4227" d="M52.9-37.6c0-0.1,0-0.2,0-0.2C52.6-37.9,52.8-37.8,52.9-37.6z"/>
					<path fill="#DE4227" d="M50.8-34.6c0.2-0.1-0.7-0.2-0.5-0.2C49.6-35,51.1-33.9,50.8-34.6z"/>
					<polygon fill="#DE4227" points="54.5,-37.1 53.8,-37.1 54.3,-36.9 					"/>
					<path fill="#DE4227" d="M53.7-35.1l0.2-0.4c-0.1,0-0.2-0.1-0.2-0.1C53.7-35.4,53.5-35.1,53.7-35.1z"/>
					<path fill="#DE4227" d="M53.7-35.7c0-0.1,0-0.3-0.1-0.3C53.7-35.9,53.7-35.8,53.7-35.7z"/>
					<polygon fill="#DE4227" points="54.6,-36.5 54.5,-36.4 54.4,-36.1 					"/>
					<path fill="#DE4227" d="M53.1-30.8l0.2,0.5c0.2,0.1,0.4,0,0.3-0.2C53.4-30.7,53.3-30.8,53.1-30.8z"/>
					<path fill="#DE4227" d="M55.2-31.9c-0.2,0.1-0.3,0.1-0.6,0.1l0.9,0.1L55.2-31.9z"/>
					<path fill="#DE4227" d="M55.2-30.6c0.2,0.1,0.6,0.7,0.6,0.2C55.6-30.5,55.5-31,55.2-30.6z"/>
					<polygon fill="#DE4227" points="53.2,-24 53.2,-24.2 51.8,-24.4 					"/>
					<path fill="#DE4227" d="M55.6-17.6c0.4-0.5-0.9-0.3-0.3-0.7c-0.3-0.2-0.4,0.3-0.7,0.2C54.9-17.8,54.7-17.6,55.6-17.6z"/>
					<path fill="#DE4227" d="M54.6-18.1c0-0.1-0.1-0.1-0.2-0.2C54.5-18.2,54.6-18.2,54.6-18.1z"/>
					<polygon fill="#DE4227" points="37.1,47.3 36.7,47.7 37.2,47.4 					"/>
					<path fill="#DE4227" d="M38.1,48l-0.9,0.1l0.8,0.2C38,48.2,37.9,48,38.1,48z"/>
					<path fill="#DE4227" d="M52.9,3.1L52.7,3c-0.2,0-0.3,0.1-0.3,0.2L52.9,3.1z"/>
					<polygon fill="#DE4227" points="51.4,7.5 51.4,7.4 50.6,7.4 					"/>
					<path fill="#DE4227" d="M51.7,11.5c0.1-0.2-0.1-0.4,0-0.5C51.7,11.3,50.6,11.3,51.7,11.5z"/>
				</g>
			</g>
		</g>
	</g>
</g>
</svg>
