<?xml version="1.0" encoding="utf-8"?>
<!-- Generator: Adobe Illustrator 18.1.1, SVG Export Plug-In . SVG Version: 6.00 Build 0)  -->
<!DOCTYPE svg PUBLIC "-//W3C//DTD SVG 1.1//EN" "http://www.w3.org/Graphics/SVG/1.1/DTD/svg11.dtd">
<svg version="1.1" id="Lager_1" xmlns="http://www.w3.org/2000/svg" xmlns:xlink="http://www.w3.org/1999/xlink" x="0px" y="0px"
	 viewBox="0 0 800 600" enable-background="new 0 0 800 600" xml:space="preserve">
<path fill="#FAAD43" d="M-21.1-36c-15,9.1-35.6,26.6-33,53.1c0,0,5.1,21.2,23.9,22.3c18.8,1.1,65.4-110.3,62.8-127.6
	c0,0-6.1,8-14,17.6C7.4-56.9-6-45.1-21.1-36z"/>
<path fill="#D32E1A" d="M-2.6-6.7C-10.2-0.4-32,9.2-18.4,22c0,0-9.6,15.4,12,15.4C3,37.4,26.4-38.8,25-50.8c0,0-3,5.5-7,12.2
	C12.4-29.2,4.9-13-2.6-6.7z"/>
<path fill="#FBE069" d="M-17.3-42.3c-8.4,7.6-19,20-13,29.4c0,0,6.8,6.7,19.2,1.9S14-71.1,9.4-77c0,0-2.7,4.7-6.3,10.6
	C-2-58.1-8.9-49.9-17.3-42.3z"/>
<path fill="#FAAD43" d="M-31.4-62.4c-15,9.1-35.6,26.6-33,53.1c0,0,5.1,21.2,23.9,22.3S24.9-97.3,22.2-114.6c0,0-6.1,8-14,17.6
	C-2.9-83.3-16.3-71.6-31.4-62.4z"/>
<path fill="#D32E1A" d="M-33.4-57.6c-7.5,6.3-29.4,15.9-15.8,28.7c0,0-9.6,15.4,12,15.4c9.4,0,32.8-76.3,31.5-88.3c0,0-3,5.5-7,12.2
	C-18.3-80.1-25.8-63.9-33.4-57.6z"/>
<path fill="#FBE069" d="M-38.5,10.4c-8.4,7.6-19,20-13,29.4c0,0,6.8,6.7,19.2,1.9s25-60.2,20.5-66c0,0-2.7,4.7-6.3,10.6
	C-23.2-5.5-30.1,2.7-38.5,10.4z"/>
<path fill="#FAAD43" d="M12.1-52.3c-15,9.1-35.6,26.6-33,53.1c0,0,5.1,21.2,23.9,22.3c18.8,1.1,65.4-110.3,62.8-127.6
	c0,0-6.1,8-14,17.6C40.6-73.2,27.2-61.5,12.1-52.3z"/>
<path fill="#D32E1A" d="M-9.5,9.5c-7.5,6.3-29.4,15.9-15.8,28.7c0,0-9.6,15.4,12,15.4c9.4,0,32.8-76.3,31.5-88.3c0,0-3,5.5-7,12.2
	C5.6-13-1.9,3.2-9.5,9.5z"/>
<path fill="#FBE069" d="M3.9,11.1c-8.4,7.6-19,20-13,29.4c0,0,6.8,6.7,19.2,1.9s25-60.2,20.5-66c0,0-2.7,4.7-6.3,10.6
	C19.2-4.8,12.3,3.4,3.9,11.1z"/>
<path fill="#FAAD43" d="M43.6-8.2C28.6,0.9,8,18.4,10.6,45c0,0,5.1,21.2,23.9,22.3C53.2,68.3,99.9-43,97.2-60.4c0,0-6.1,8-14,17.6
	C72.1-29.1,58.7-17.3,43.6-8.2z"/>
<path fill="#D32E1A" d="M31.6-13.5C24.1-7.2,2.2,2.4,15.8,15.2c0,0-9.6,15.4,12,15.4c9.4,0,32.8-76.3,31.5-88.3c0,0-3,5.5-7,12.2
	C46.7-36,39.2-19.8,31.6-13.5z"/>
<path fill="#FBE069" d="M47.4,44.3c-8.4,7.6-19,20-13,29.4c0,0,6.8,6.7,19.2,1.9c12.5-4.8,25-60.2,20.5-66c0,0-2.7,4.7-6.3,10.6
	C62.7,28.4,55.8,36.6,47.4,44.3z"/>
</svg>
