<?xml version="1.0" encoding="utf-8"?>
<!-- Generator: Adobe Illustrator 18.1.1, SVG Export Plug-In . SVG Version: 6.00 Build 0)  -->
<!DOCTYPE svg PUBLIC "-//W3C//DTD SVG 1.1//EN" "http://www.w3.org/Graphics/SVG/1.1/DTD/svg11.dtd">
<svg version="1.1" id="Lager_1" xmlns="http://www.w3.org/2000/svg" xmlns:xlink="http://www.w3.org/1999/xlink" x="0px" y="0px"
	 viewBox="0 0 800 600" enable-background="new 0 0 800 600" xml:space="preserve">
<path fill="#D32E1A" d="M301,284c0,10.9,0.7,19.1,4.5,29.2c2,5.3,0.5,12.2,7.6,11.7c0.3-4.3-1.6-9-0.9-13.1
	c6.1,1.1,10.1,6.1,16.6,5.8c-0.4-2.2-7-8.2-9.1-9.9c-3.2-2.7-6.6-1.6-6.9-6.2c-0.5-7,8.3-11.2,8-18.1c-0.2-5.8-4.5-1.3-6.1,1.4
	c-2,3.2-3.9,6.8-6.1,10.1c-3.7-2.8,2.6-12.4-2.8-15.2C302,277.6,301.3,284.1,301,284z"/>
<path fill="#D32E1A" d="M323.2,280.5c6.2-1.1,5.2,22.3,11.5,26c7.9,4.6,5.9-7.7,4.5-11.8c-1.9-5.5-4.8-12.2-4.1-18.2
	c8.1-3.2,5.4,9.2,6.6,14c1.5,5.9,4.2,11.4,3.1,18c-1.2,6.6-9.7,4.9-13.9,1.4c-4.6-3.8-5.5-9.6-7.3-14.9
	C322.6,292.2,321.7,283.5,323.2,280.5z"/>
<path fill="#D32E1A" d="M341.6,273.3c3.1,5.9,7.2,9.9,9,16.5c1.1,4.1,2.1,8.5,3.6,12.3c1.3,3.2,3.7,6.4,5,1.7
	c1-3.7-1.3-9.4-3.4-12.5c4.5-0.4,9.9,3.8,14.5,5.4c0.9,0.3,1.9-0.1,2.3-0.9c0,0,0,0,0,0c0.4-0.9,0.1-2-0.7-2.4
	c-3.1-1.8-5.9-4.8-9.2-6.2c-1.7-0.7-4.4-0.7-5.9-2.1c-2.4-2.2-0.8-3.6-0.4-6.3c0.5-3.6,1.8-13.1-3.5-12.7c-5.1,0.4-2.5,6.6-2.7,10.3
	c-3.3-1.9-3.5-9.6-8.7-8.9C340.5,269.1,340.5,269.1,341.6,273.3z"/>
<path fill="#D32E1A" d="M358.6,265.3c-0.5,5.3,4,6.7,6.9,10c3.4,3.8,4.2,10.8,9,13.3c6.1,3.1,11.8-1.6,13.9-7
	c1.5-3.7-1.6-5.3-5.3-3.8c-2.6,1-2.2,4.6-5.2,4.9c-2.8,0.3-3.5-1.8-3.4-4.2c0.1-2.8,2.1-3.4,3-6.1c0.9-2.7,0.3-5.7-3.1-5
	c-2.6,0.5-3.6,4.1-6,4.8c-1-2.7-0.7-3.9,0.5-6.3c1-2,2.9-2.1,0.4-3.6C367.2,261,360,263.4,358.6,265.3z"/>
<path fill="#D32E1A" d="M394.4,278.9C394.4,278.9,394.3,278.9,394.4,278.9c-0.9,0.5-1.9,0.4-2.6-0.3c-3.2-3.1-5.4-7.7-8.7-10.7
	c-3-2.7-5.2-6.4-6.9-10c5.2-1.9,9.3,0.3,12.9,3.8c2.1,2,6.9,7.2,9.5,3.5c2.9-4.3-3.3-8.1-5.7-10.4c-2.2-2.1-3.2-4.7-5.2-6.9
	c6.2-3.2,9,2.7,11.4,7.4c2.7,5.2,5.6,9.9,5.2,16.1c-5,2-11.5-1.9-15.5-4.4c0.5,2.2,3.3,3.6,4.6,5.5c0.8,1.1,1.2,2.4,1.9,3.7
	C395.6,277.1,395.3,278.3,394.4,278.9z"/>
</svg>
