<?xml version="1.0" encoding="utf-8"?>
<!-- Generator: Adobe Illustrator 16.0.0, SVG Export Plug-In . SVG Version: 6.00 Build 0)  -->
<!DOCTYPE svg PUBLIC "-//W3C//DTD SVG 1.1//EN" "http://www.w3.org/Graphics/SVG/1.1/DTD/svg11.dtd">
<svg version="1.1" id="Layer_1" xmlns="http://www.w3.org/2000/svg" xmlns:xlink="http://www.w3.org/1999/xlink" x="0px" y="0px"
	 width="600px" height="600px" viewBox="0 0 600 600" enable-background="new 0 0 600 600" xml:space="preserve">
<g>
	<circle fill-rule="evenodd" clip-rule="evenodd" fill="#222221" cx="300" cy="299.998" r="204.385"/>
	<g>
		<path fill-rule="evenodd" clip-rule="evenodd" fill="#222221" d="M176.593,243.292c1.379,11.31,2.106,21.079,0.163,30.135
			c-1.011,4.723,2.333,8.181,5.657,12.192c5.021-3.803,5.263-8.875,8.877-14.461c4.007-6.201,1.322-15.223,1.543-22.492
			c0.214-6.981,5.064-12.875,12.651-17.013c5.705-1.053,10.717,1.816,15.411,0.822c6.13-1.292,11.532,4.634,17.289,7.001
			c2.005,7.625-4.816,18.859,5.818,23.071c6.167,1.503,12.562,2.333,17.998,5.53c5.907,3.474,3.259,5.167,7.71,0.099
			c3.828-4.356,8.857-8.329,13.929-7.128c4.434,1.049,7.597-2.792,10.517-6.322c8.411,1.311,18.182-1.75,26.46,2.007
			c5.986,2.716,12.766,1.614,19.563-0.034c10.509-2.545,21.386-0.378,31.012,0.03c7.621-1.704,17.994-1.621,26.846-2.5
			c8.853-0.879,16.188-2.712,23.105,2.5c15.168,1.167,14.111-9.742,25.874,3.572c9.18,10.386,24.88,13.965,23.332,29.666
			c-0.564,5.727-2.654,7.965-8.916,6.511c-4.524-1.049-9.157-3.917-11.817-4.205c-3.913-0.42-2.966,8.64,1.021,9.735
			c7.757,2.136,13.517,4.727,16.19,13.692c2.826,9.47,1.617,18.886-5.265,20.609c-5.857,1.47-7.21,3.716-9.996,5.272
			c-12.039,6.727-30.667,3.807-40.05,1.811c-6.622-0.197-9.831,8.026-17.253,5.821c-7.022-18.257-2.609-33.907-9.63-51.96
			c-13.441,5.015,2.003,21.666-5.82,32.699c3.611,4.613,1.407,11.432,2.01,17.254c-7.824,2.007-16.254,13.438-23.071,5.817
			c3.609-11.837-7.422-22.268,0-30.896c-0.203-4.212,0.801-9.026-4.014-11.432c-5.015,1.201-12.638-3.212-15.247,3.811
			c3.613,17.454-7.021,29.086-13.638,42.328c-4.968,1.242-8.793-0.458-12.397-2.682c-10.482-6.478,4.508-9.807-2.853-16.579
			c-8.274,3.462-16.833,5.917-25.164,8.943c-15.388,5.587-14.354,6.563-16.175,1.708c-2.303-6.14-10.559-3.212-17.697-0.091
			c-4.617,2.015-13.581,0.621-16.211,2.814c-4.973,4.154-3.545,18.075-15.429,15.518c-13.24-6.022-16.253-19.862-17.253-32.703
			c-10.23,4.814-2.809,22.067-17.251,25.079c-6.021,5.011-15.649-0.401-15.448-7.826c1.202-3.609-1.805-5.416-3.812-7.624
			c-8.225,3.015,1.004,18.056-11.634,19.261c-5.215-1.205-12.638,3.212-15.45-3.811c-1.49-9.042,0.091-19.216-1.955-28.98
			c-2.232-10.654,0.489-25.673,0.152-36.62c-4.816-15.848,1.803-29.492-5.82-44.139c-3.008-8.272,2.055-9.965,7.35-11.98
			c11.854-4.511,6.03-2.226,18.183-1.633C163.484,235.86,170.942,233.224,176.593,243.292L176.593,243.292z"/>
		<path fill-rule="evenodd" clip-rule="evenodd" fill="#FFFFFF" d="M232.565,247.102c-1.792,17.238-3.089,35.105-7.958,51.654
			c-2.462,8.386-0.866,15.602,0.136,23.374c-1.256,3.515,0.784,7.288-0.411,10.753c-1.611,4.663,1.784,9.353,0.462,13.879
			c-1.188,4.053-0.417,8.291-3.866,12.083c-6.494-3.686-9.227-9.883-10.922-16.738c-1.64-6.625-0.17-19.245,1.295-27.598
			c1.203-5.617-1.807-9.227-3.812-13.442c-12.788,9.178-14.068,26.029-19.579,39.722c-1.837,4.561-4.144,8.776-7.505,12.238
			c-0.464-0.818-1.487-3.401-1.354-2.474c0.235,1.659-0.672-1.295-0.996-1.946c-1.78-3.595-0.58-10.734-4.578-11.099
			c-1.428-0.132-2.002-3.95-2.339-8.344c-0.375-4.837-1.809-9.617-2.167-14.655c-2.207-2.008-4.214-5.015-7.824-3.811l-3.812,3.811
			l-3.811,42.328h-1.905h-1.909c0.602-1.807-1.002-2.605-2.006-3.811c-1.805-0.603-2.608,0.803-3.811,2.004
			c-7.022-13.644,6.019-28.283-3.812-40.521c5.217-26.082-5.818-44.536-2.008-71.217c9.231-5.818,17.454,2.605,27.084,1.803
			c15.647,14.446-7.824,37.919,13.441,50.157c4.013,7.019-8.625,15.446,3.812,17.249c8.627-11.636,5.818-28.086,17.251-38.517
			c-2.807-6.42-2.807-16.45,0-23.071C208.09,232.858,220.728,244.493,232.565,247.102L232.565,247.102z"/>
		<path fill-rule="evenodd" clip-rule="evenodd" fill="#FFFFFF" d="M338.489,264.355c5.655,2.068,11.479-5.117,14.725-1.883
			c0.343,0.341,4.149,0.129,6.343,1.883c-1.26,3.341-4.456,4.947-8.528,5.488c-7.494,1-11.694,1.019-17.011,2.958
			c-3.644,1.337-4.724,5.303-1.345,12.817c2.106,3.951,4.979,6.515,8.017,3.678c2.898-2.705,8.081-2.686,11.24,0.132
			c-2.004,15.651-25.074,0.402-23.067,17.454c2.405,9.026,3.117,20.2-1.412,28.859c-1.512,2.886-3.604,5.496-6.415,7.651
			c-0.492-0.659-1.375-2.796-1.238-2.038c0.314,1.765-0.481-1.087-0.663-1.644c-0.996-3.064,2.424-11.401-0.561-9.766
			c-0.307,0.167,0.193-3.34,0.522-7.359c0.337-4.079-0.708-8.147-3.875-11.89c-6.221-14.647,6.818-40.529-17.253-44.339
			c0.299-4.11,5.133-2.864,6.293-5.89c1.891-4.928,6.947,0.879,9.151,2.08c0.455,0.485,0.909,1.049,1.496,1.189
			c0.062,0.015,0.121,0.027,0.188,0.031c0.688,0.057,1.432,0.011,2.191-0.083c0.457-0.057,0.923-0.133,1.389-0.216
			c1.595-0.28,3.216-0.644,4.651-0.644c1.438,0,2.684,0.364,3.528,1.53c0.537-0.493,1.719-0.97,3.125-1.345
			c2.34-0.632,5.299-0.989,6.884-0.67c0.545,0.11,1.109,0.784,0.788,0.72c-3.104-0.618-1.025,0.076,0.011,0.504
			C338.187,263.776,337.538,264.613,338.489,264.355L338.489,264.355z"/>
		<path fill-rule="evenodd" clip-rule="evenodd" fill="#FFFFFF" d="M384.632,262.549l2.003-2.004
			c15.25,0.599,30.696,7.019,46.143,2.004l2.006,1.807c-13.845-1.807-21.666,10.432-25.075,21.264
			c6.421,10.235-4.615,20.465,1.807,30.893c-11.638,6.424,7.824,20.465-9.63,23.071c-8.426-9.629,3.811-23.874-5.619-34.707
			c-6.619-10.629,6.823-33.098-13.642-34.708c-3.208-2.003-5.615-7.019-1.803-9.625
			C382.624,259.943,383.427,261.549,384.632,262.549L384.632,262.549z"/>
		<path fill-rule="evenodd" clip-rule="evenodd" fill="#FFFFFF" d="M303.782,289.43c-4.826-1.102-9.443-6.212-14.365-5.826
			c-3.96,0.307-4.517,0.197-6.899,2.015c-0.449,1.152-0.322,3.125-1.727,3.924c-3.252,1.852-2.205,3.882-3.981,5.92
			c-1.25,1.436,0.382,3.81,1.897,5.602c3.072,5.795,7.451,10.742,12.074,10.503c6.505-0.337,12.3,4.356,16.818,10.561
			c-7.426,9.432-18.859,17.053-30.897,19.257c-4.064-3.758-10.384-4.474-14.305-8.318c-1.307-1.283-2.348-2.912-2.949-5.117
			c0.718-0.113,1.809-0.757,2.108-0.136c1.112,2.318,1.057,0.064,1.574,0.144c2.837,0.439,6.983,0.432,7.966,3.117
			c1.295,3.542,3.29,3.436,5.43,2.451c2.897-1.337,6.204,0.897,9.807-1.766c2.005-3.208,8.024-4.613,5.816-9.632
			c-3.409-6.92-11.375-12.829-16.1-9.629c-5.176,3.508-11.585-3.31-12.788-11.435c-0.367-2.216-0.479-4.208-0.229-6.011
			c0.024-0.186,0.057-0.371,0.091-0.553c0.382-2.079,1.049-3.973,1.917-5.723c0.521-1.049,1.116-2.045,1.765-2.996
			c2.216-3.246,5.083-5.966,7.928-8.466c2.845-2.503,5.665-4.784,7.786-7.147c2.591-0.132,5.263,0.167,7.771,0.864
			c4.176,1.155,7.888,3.42,9.986,6.628c0.716,1.099,2.629,3.811,1.258,3.761c-3.026-0.106-0.868,1.106,0.246,2.049
			C303.562,284.983,302.267,288.044,303.782,289.43L303.782,289.43z"/>
		<path fill-rule="evenodd" clip-rule="evenodd" fill="#FFFFFF" d="M255.636,275.991c-4.828,10.204-0.845,24.268-3.807,36.317
			c-1.528,6.212,0.372,11.003-0.003,15.643c0.875,1.152,2.553,2.739,1.667,3.292c-2.146,1.333-0.568,2.564-2.886,3.655
			c-1.089,0.515-1.551,1.92-2.793,2.678h-3.811c8.626-15.245-8.626-27.078,0-42.324c-2.809-6.424-2.809-16.655,0-23.075
			C248.415,272.378,253.229,271.173,255.636,275.991L255.636,275.991z"/>
		<path fill-rule="evenodd" clip-rule="evenodd" fill="#FFFFFF" d="M461.665,287.627l-2.004,1.803
			c-3.61-7.219-10.835-5.417-17.253-5.818c-4.213,4.613-10.03,8.227-7.625,15.446c9.43,11.439,33.103,11.037,24.878,30.896
			c-9.831,7.621-24.275,9.629-36.512,5.818c-3.811-2.807-0.201-8.825-3.811-11.64c9.027,0.605,19.058,15.65,26.881,2.011
			c-1.204-18.858-40.324-16.049-23.07-42.532c5.017-5.814,10.634-9.628,17.251-11.435
			C452.034,270.37,455.449,280.404,461.665,287.627L461.665,287.627z"/>
		<path fill-rule="evenodd" clip-rule="evenodd" fill="#FFFFFF" d="M375.001,283.612c-5.928,12-0.061,25.098-1.738,38.241
			c-0.833,6.53,1.738,11.901,1.738,17.73c-0.163,0.519,0.159,1.912-0.825,2.307c-2.978,1.186-1.981,2.474-4.782,3.234
			c-1.258,0.337-2.365,0.966-4.022,0.28l-2.004-2.011c2.407-20.061,4.615-44.733-1.807-63.593
			C364.969,277.999,373.997,278.196,375.001,283.612L375.001,283.612z"/>
	</g>
</g>
</svg>
