<?xml version="1.0" encoding="utf-8"?>
<!-- Generator: Adobe Illustrator 16.0.0, SVG Export Plug-In . SVG Version: 6.00 Build 0)  -->
<!DOCTYPE svg PUBLIC "-//W3C//DTD SVG 1.1//EN" "http://www.w3.org/Graphics/SVG/1.1/DTD/svg11.dtd">
<svg version="1.1" id="Layer_1" xmlns="http://www.w3.org/2000/svg" xmlns:xlink="http://www.w3.org/1999/xlink" x="0px" y="0px"
	 width="600px" height="600px" viewBox="0 0 600 600" enable-background="new 0 0 600 600" xml:space="preserve">
<g>
	<g>
		<path d="M43.832,419.303c0,0,65.909-313.286,258.83-313.286c192.924,0,253.505,313.286,253.505,313.286H43.832z"/>
		<g>
			<defs>
				<path id="SVGID_1_" d="M529.814,427.732l10.113-2.344c-19.235-82.922-58.962-198.454-139.003-278.007
					c-33.563-33.359-62.955-49.305-78.322-56.092c-3.339-2.438-5.476-3.642-6.023-3.938l-0.644,1.189
					c-2.714-1.024-4.311-1.509-4.625-1.599l-1.438,4.94h-2.958l-1.442-4.94c-0.307,0.09-1.915,0.575-4.629,1.599l-0.636-1.189
					c-0.547,0.296-2.688,1.5-6.027,3.938c-15.367,6.787-44.763,22.733-78.322,56.092C135.82,226.935,96.093,342.467,76.851,425.389
					l10.121,2.344c34.18-147.324,92.617-229.447,135.619-272.397c15.748-15.731,30.62-27.484,43.428-36.168
					c-32.779,40.76-79.087,128.614-92.358,307.005l10.36,0.77c15.996-215.004,81.639-296.16,109.026-321.056
					c-13.584,28.706-47.672,123.249-36.306,332.489l10.364-0.562c-12.42-228.759,30.997-319.834,38.758-334.103h5.062
					c7.754,14.269,51.171,105.344,38.747,334.103l10.375,0.562c11.359-209.24-22.726-303.783-36.317-332.489
					c27.392,24.896,93.042,106.052,109.034,321.056l10.356-0.77c-13.271-178.391-59.579-266.245-92.357-307.005
					c12.812,8.684,27.68,20.437,43.428,36.168C437.197,198.286,495.631,280.409,529.814,427.732z"/>
			</defs>
			<clipPath id="SVGID_2_">
				<use xlink:href="#SVGID_1_"  overflow="visible"/>
			</clipPath>
			<path clip-path="url(#SVGID_2_)" fill="#282828" d="M43.832,419.303c0,0,65.909-313.286,258.83-313.286
				c192.924,0,253.505,313.286,253.505,313.286H43.832z"/>
		</g>
	</g>
	<path d="M21.55,447.204c0,0,2.311,37.464,18.466,42.825c16.151,5.354,253.864-99.028,507.72,0
		c29.041,7.018,43.846-64.241,23.258-88.068c-12.405-31.119-302.501-99.285-526.363-8.283
		C16.936,407.722,17.291,423.969,21.55,447.204z"/>
	<g>
		<path fill="#282828" d="M530.417,483.329c3.332,1.19,6.663,2.411,10.006,3.661c22.459-43.462,18.654-79.328,13.703-98.215
			c-3.724-1.842-8.002-3.705-12.831-5.584C545.784,395.416,556.167,434.3,530.417,483.329z"/>
		<path fill="#282828" d="M444.522,459.613c3.438,0.688,6.889,1.397,10.342,2.152c8.062-41.428,1.099-83.721-2.658-101.447
			c-3.69-0.636-7.429-1.265-11.24-1.878C443.997,371.773,452.775,416.751,444.522,459.613z"/>
		<path fill="#282828" d="M76.663,381.388c-3.819,1.271-7.625,2.588-11.415,3.934c-2.089,14.82-3.823,50.598,17.127,94.725
			c3.313-0.88,6.789-1.797,10.435-2.751C68.332,426.771,75.446,387.104,76.663,381.388z"/>
		<path fill="#282828" d="M158.945,360.407c-2.337,15.123-4.142,49.119,12.476,99.398c3.45-0.621,6.966-1.221,10.523-1.812
			c-18.074-53.939-14.018-88.608-11.902-99.546C166.34,359.069,162.642,359.728,158.945,360.407z"/>
		<path fill="#282828" d="M254.778,349.07c-3.553,0.2-7.114,0.422-10.679,0.673c-1.335,15.441-3.165,56.048,8.401,99.494
			c3.55-0.28,7.136-0.539,10.745-0.776C251.155,404.646,253.573,362.396,254.778,349.07z"/>
		<path fill="#282828" d="M356.025,448.158c3.497,0.215,7.018,0.458,10.553,0.732c5.687-42.663,2.865-80.504,0.75-98.852
			c-3.557-0.251-7.14-0.487-10.745-0.702C358.613,366.397,361.815,405.215,356.025,448.158z"/>
	</g>
</g>
</svg>
