<?xml version="1.0" encoding="utf-8"?>
<!-- Generator: Adobe Illustrator 16.0.0, SVG Export Plug-In . SVG Version: 6.00 Build 0)  -->
<!DOCTYPE svg PUBLIC "-//W3C//DTD SVG 1.1//EN" "http://www.w3.org/Graphics/SVG/1.1/DTD/svg11.dtd">
<svg version="1.1" id="Layer_1" xmlns="http://www.w3.org/2000/svg" xmlns:xlink="http://www.w3.org/1999/xlink" x="0px" y="0px"
	 width="600px" height="600px" viewBox="0 0 600 600" enable-background="new 0 0 600 600" xml:space="preserve">
<path d="M497.81,449.969L309.046,122.99c-1.93-3.326-5.454-5.321-9.246-5.321c-3.791,0-7.316,2.062-9.245,5.321L101.791,449.969
	c-1.929,3.324-1.929,7.383,0,10.641c1.929,3.326,5.454,5.322,9.245,5.322h377.527c3.792,0,7.316-2.062,9.246-5.322
	C499.738,457.285,499.738,453.229,497.81,449.969z"/>
<polygon fill="#FFFF00" points="129.526,444.58 299.8,149.729 470.073,444.58 "/>
<path d="M286.498,369.287L255.37,423.23c28.334,16.361,60.593,16.361,88.928,0l-31.128-53.943c-0.2,0.135-0.4,0.268-0.6,0.4
	c-0.731,0.398-1.529,0.797-2.328,1.131c-0.798,0.332-1.596,0.664-2.461,0.932c-0.864,0.266-1.662,0.465-2.527,0.664
	c-0.864,0.199-1.729,0.332-2.66,0.398c-0.864,0.068-1.796,0.133-2.727,0.133s-1.796-0.064-2.727-0.133
	c-0.865-0.066-1.796-0.199-2.661-0.398s-1.729-0.398-2.527-0.664c-0.865-0.268-1.663-0.533-2.461-0.932
	c-0.798-0.334-1.596-0.732-2.328-1.131C286.896,369.555,286.697,369.422,286.498,369.287z"/>
<path d="M255.37,269.186c-28.335,16.362-44.431,44.298-44.431,77.021h62.256c0-0.93,0.066-1.861,0.133-2.727
	c0.066-0.863,0.266-1.795,0.399-2.66c0.199-0.865,0.399-1.729,0.665-2.527c0.266-0.865,0.532-1.662,0.931-2.461
	c0.333-0.799,0.732-1.596,1.131-2.328c0.399-0.73,0.865-1.463,1.33-2.195c0.466-0.73,0.998-1.396,1.53-2.062
	c0.532-0.664,1.131-1.262,1.729-1.861c0.599-0.598,1.264-1.197,1.929-1.729c0.666-0.533,1.331-1.064,2.062-1.529
	c0.532-0.334,1.064-0.666,1.596-0.998L255.37,269.186z"/>
<path d="M344.298,269.186l-31.128,53.943c0.531,0.332,1.063,0.598,1.596,0.998c0.731,0.465,1.396,0.996,2.062,1.529
	c0.665,0.531,1.263,1.131,1.928,1.729c0.6,0.6,1.197,1.264,1.73,1.861c0.531,0.666,1.063,1.332,1.529,2.062
	c0.466,0.732,0.931,1.465,1.33,2.195c0.399,0.732,0.799,1.529,1.131,2.328c0.333,0.799,0.665,1.596,0.931,2.461
	c0.267,0.865,0.466,1.662,0.665,2.527c0.2,0.865,0.333,1.729,0.399,2.66c0.066,0.865,0.133,1.797,0.133,2.727h62.257
	C388.729,313.484,372.632,285.548,344.298,269.186z"/>
<circle cx="299.8" cy="346.208" r="17.759"/>
</svg>
