<?xml version="1.0" encoding="utf-8"?>
<!-- Generator: Adobe Illustrator 16.0.0, SVG Export Plug-In . SVG Version: 6.00 Build 0)  -->
<!DOCTYPE svg PUBLIC "-//W3C//DTD SVG 1.1//EN" "http://www.w3.org/Graphics/SVG/1.1/DTD/svg11.dtd">
<svg version="1.1" id="Layer_1" xmlns="http://www.w3.org/2000/svg" xmlns:xlink="http://www.w3.org/1999/xlink" x="0px" y="0px"
	 width="600px" height="600px" viewBox="0 0 600 600" enable-background="new 0 0 600 600" xml:space="preserve">
<g>
	<path d="M253.056,312.22c0,0-0.148-0.144-0.437-0.424c-0.352-0.325-0.993-0.883-1.848-1.603c-1.752-1.438-4.475-3.598-8.201-6.071
		c-3.711-2.494-8.411-5.293-14.022-7.97c-2.816-1.306-5.848-2.607-9.098-3.771c-3.252-1.139-6.712-2.183-10.365-3.021
		c-3.652-0.793-7.486-1.395-11.474-1.72c-3.985-0.291-8.11-0.237-12.341,0.148c-4.236,0.345-8.536,1.257-12.893,2.469
		c-1.102,0.34-2.142,0.621-3.319,1c-1.271,0.434-2.548,0.872-3.832,1.311c-2.548,0.877-5.124,1.769-7.718,2.661
		c-10.407,3.603-21.21,7.413-32.341,11.129c-11.136,3.701-22.598,7.349-34.49,10.241c-11.883,2.81-24.266,5.121-37.241,4.317
		c-3.245-0.256-6.498-0.704-9.729-1.468c-1.614-0.439-3.221-0.838-4.795-1.444l-1.183-0.424l-0.293-0.104
		c0.01,0.005-0.609-0.231-0.404-0.158l-0.121-0.054l-0.488-0.222c-0.67-0.315-1.245-0.553-1.994-0.927l-2.489-1.36
		c-0.793-0.469-1.463-0.971-2.193-1.459c-0.727-0.463-1.377-1.055-2.048-1.597c-0.68-0.532-1.311-1.129-1.915-1.745
		c-2.454-2.42-4.482-5.204-6.022-8.146c-3.061-5.929-4.155-12.361-3.903-18.409c0.276-6.067,1.957-11.833,4.711-16.871
		c2.829-4.978,6.816-9.271,11.664-11.878c2.405-1.296,4.943-2.257,7.506-2.745l0.239-0.054l0.119-0.024
		c0.414-0.084,0.175-0.035,0.295-0.054l0.426-0.049l0.851-0.099c0.566-0.064,1.128-0.128,1.688-0.192
		c0.577-0.054,1.082-0.158,1.708-0.167c0.631,0,1.259,0,1.883-0.005c2.526-0.108,4.823,0.33,7.083,0.666
		c1.106,0.315,2.198,0.626,3.275,0.931c0.544,0.128,1.06,0.335,1.562,0.577c0.505,0.222,1.005,0.449,1.505,0.666
		c3.916,1.868,7.302,4.381,9.658,7.403c0.306,0.365,0.646,0.695,0.912,1.079c0.256,0.395,0.513,0.784,0.764,1.163
		c0.488,0.784,1.033,1.503,1.434,2.287c0.71,1.622,1.587,3.081,1.972,4.667c0.239,0.769,0.471,1.523,0.7,2.262
		c0.197,0.744,0.276,1.503,0.412,2.223c0.121,0.72,0.239,1.424,0.355,2.114c0.027,0.695,0.054,1.375,0.079,2.036
		c0.025,0.655,0.047,1.296,0.071,1.917c0.035,0.621-0.081,1.223-0.113,1.804c-0.113,1.163-0.167,2.252-0.315,3.253
		c-0.448,1.976-0.692,3.682-1.128,4.998c-0.873,2.627-1.336,4.026-1.336,4.026s0.328-1.429,0.946-4.115
		c0.306-1.34,0.385-3.046,0.641-5.002c0.047-0.986,0-2.055,0.002-3.179c-0.022-0.566,0.037-1.148-0.054-1.74
		c-0.079-0.591-0.16-1.203-0.244-1.829c-0.084-0.621-0.167-1.256-0.256-1.912c-0.17-0.641-0.345-1.291-0.525-1.961
		c-0.192-0.661-0.328-1.355-0.577-2.026c-0.276-0.66-0.559-1.335-0.848-2.025c-0.478-1.419-1.429-2.671-2.186-4.062
		c-0.426-0.67-0.985-1.267-1.479-1.917c-0.253-0.32-0.51-0.641-0.766-0.966c-0.266-0.315-0.602-0.577-0.899-0.873
		c-2.304-2.455-5.446-4.308-8.894-5.569c-0.438-0.148-0.879-0.296-1.321-0.443c-0.436-0.168-0.884-0.301-1.36-0.36
		c-0.929-0.172-1.865-0.345-2.816-0.522c-1.939-0.084-3.94-0.276-5.833,0.005l-1.444,0.113c-0.485,0.04-1.079,0.212-1.616,0.315
		c-0.552,0.113-1.106,0.232-1.661,0.35l-0.838,0.182l-0.421,0.089c0.049-0.01-0.259,0.049,0.086-0.015l-0.089,0.029l-0.177,0.064
		c-1.915,0.557-3.721,1.469-5.404,2.588c-3.376,2.252-6.03,5.732-7.824,9.714c-1.72,4.037-2.587,8.61-2.343,13.174
		c0.251,4.549,1.552,9.063,3.958,12.76c1.212,1.838,2.681,3.465,4.367,4.82c0.409,0.351,0.833,0.681,1.301,0.966
		c0.458,0.291,0.875,0.631,1.375,0.868c0.478,0.246,0.971,0.557,1.422,0.759c0.441,0.178,0.875,0.364,1.301,0.566
		c0.54,0.212,1.308,0.459,1.952,0.69l0.505,0.172l0.128,0.05c0.283,0.104-0.247-0.099-0.153-0.069l0.214,0.055l0.862,0.212
		c1.129,0.325,2.339,0.482,3.519,0.699c2.413,0.321,4.912,0.43,7.459,0.39c10.271-0.325,21.151-3.292,31.834-6.949
		c10.715-3.711,21.36-8.23,31.841-12.863c10.486-4.648,20.809-9.434,30.893-14.032c2.528-1.153,5.04-2.292,7.523-3.426
		c1.235-0.557,2.464-1.114,3.689-1.666c1.329-0.582,2.814-1.168,4.207-1.74c5.688-2.203,11.472-4.002,17.258-5.072
		c5.771-1.104,11.493-1.725,17.028-1.858c5.53-0.104,10.862,0.212,15.929,0.818c5.057,0.646,9.828,1.592,14.303,2.691
		c4.465,1.128,8.61,2.444,12.457,3.8c7.659,2.785,14.063,5.811,19.204,8.581c5.153,2.75,9.056,5.259,11.762,7.073
		c1.355,0.926,2.393,1.661,3.149,2.228c0.815,0.621,1.237,0.946,1.237,0.946L253.056,312.22z"/>
	<path d="M346.944,312.22c0,0,0.15-0.144,0.438-0.424c0.353-0.325,0.991-0.883,1.849-1.603c1.752-1.438,4.473-3.598,8.198-6.071
		c3.714-2.494,8.413-5.293,14.024-7.97c2.814-1.306,5.848-2.607,9.099-3.771c3.253-1.139,6.713-2.183,10.364-3.021
		c3.652-0.793,7.487-1.395,11.472-1.72c3.987-0.291,8.11-0.237,12.341,0.148c4.239,0.345,8.537,1.257,12.896,2.469
		c1.102,0.34,2.142,0.621,3.32,1c1.271,0.434,2.548,0.872,3.831,1.311c2.549,0.877,5.124,1.769,7.719,2.661
		c10.406,3.603,21.21,7.413,32.339,11.129c11.136,3.701,22.6,7.349,34.493,10.241c11.885,2.81,24.266,5.121,37.242,4.317
		c3.243-0.256,6.496-0.704,9.727-1.468c1.614-0.439,3.221-0.838,4.796-1.444l1.183-0.424l0.294-0.104
		c-0.013,0.005,0.608-0.231,0.403-0.158l0.124-0.054l0.485-0.222c0.67-0.315,1.241-0.553,1.993-0.927l2.486-1.36
		c0.799-0.469,1.467-0.971,2.196-1.459c0.727-0.463,1.375-1.055,2.048-1.597c0.683-0.532,1.311-1.129,1.912-1.745
		c2.457-2.42,4.487-5.204,6.025-8.146c3.061-5.929,4.152-12.361,3.9-18.409c-0.273-6.067-1.956-11.833-4.712-16.871
		c-2.826-4.978-6.813-9.271-11.661-11.878c-2.404-1.296-4.943-2.257-7.508-2.745l-0.237-0.054l-0.118-0.024
		c-0.414-0.084-0.178-0.035-0.296-0.054l-0.426-0.049l-0.851-0.099c-0.566-0.064-1.129-0.128-1.688-0.192
		c-0.577-0.054-1.082-0.158-1.708-0.167c-0.634,0-1.26,0-1.886-0.005c-2.523-0.108-4.819,0.33-7.082,0.666
		c-1.104,0.315-2.195,0.626-3.272,0.931c-0.545,0.128-1.06,0.335-1.562,0.577c-0.505,0.222-1.005,0.449-1.506,0.666
		c-3.915,1.868-7.302,4.381-9.657,7.403c-0.306,0.365-0.646,0.695-0.912,1.079c-0.259,0.395-0.513,0.784-0.764,1.163
		c-0.485,0.784-1.032,1.503-1.435,2.287c-0.709,1.622-1.587,3.081-1.971,4.667c-0.239,0.769-0.474,1.523-0.7,2.262
		c-0.197,0.744-0.276,1.503-0.412,2.223c-0.12,0.72-0.238,1.424-0.352,2.114c-0.03,0.695-0.057,1.375-0.084,2.036
		c-0.022,0.655-0.045,1.296-0.069,1.917c-0.034,0.621,0.081,1.223,0.113,1.804c0.113,1.163,0.168,2.252,0.315,3.253
		c0.449,1.976,0.692,3.682,1.129,4.998c0.87,2.627,1.336,4.026,1.336,4.026s-0.328-1.429-0.946-4.115
		c-0.306-1.34-0.385-3.046-0.639-5.002c-0.052-0.986,0-2.055-0.007-3.179c0.024-0.566-0.035-1.148,0.057-1.74
		c0.078-0.591,0.16-1.203,0.244-1.829c0.083-0.621,0.167-1.256,0.256-1.912c0.17-0.641,0.345-1.291,0.524-1.961
		c0.195-0.661,0.328-1.355,0.574-2.026c0.278-0.66,0.562-1.335,0.851-2.025c0.479-1.419,1.427-2.671,2.186-4.062
		c0.427-0.67,0.986-1.267,1.479-1.917c0.254-0.32,0.511-0.641,0.767-0.966c0.267-0.315,0.599-0.577,0.899-0.873
		c2.305-2.455,5.443-4.308,8.894-5.569c0.438-0.148,0.88-0.296,1.321-0.443c0.436-0.168,0.885-0.301,1.36-0.36
		c0.929-0.172,1.865-0.345,2.816-0.522c1.939-0.084,3.94-0.276,5.835,0.005l1.442,0.113c0.485,0.04,1.077,0.212,1.616,0.315
		c0.55,0.113,1.104,0.232,1.663,0.35l0.836,0.182l0.421,0.089c-0.049-0.01,0.259,0.049-0.086-0.015l0.089,0.029l0.175,0.064
		c1.915,0.557,3.724,1.469,5.406,2.588c3.377,2.252,6.03,5.732,7.824,9.714c1.721,4.037,2.588,8.61,2.344,13.174
		c-0.251,4.549-1.553,9.063-3.96,12.76c-1.21,1.838-2.681,3.465-4.364,4.82c-0.409,0.351-0.835,0.681-1.301,0.966
		c-0.459,0.291-0.875,0.631-1.375,0.868c-0.479,0.246-0.972,0.557-1.422,0.759c-0.441,0.178-0.875,0.364-1.302,0.566
		c-0.54,0.212-1.309,0.459-1.951,0.69l-0.506,0.172l-0.128,0.05c-0.286,0.104,0.246-0.099,0.152-0.069l-0.217,0.055l-0.859,0.212
		c-1.129,0.325-2.339,0.482-3.52,0.699c-2.412,0.321-4.911,0.43-7.459,0.39c-10.271-0.325-21.151-3.292-31.834-6.949
		c-10.715-3.711-21.36-8.23-31.841-12.863c-10.485-4.648-20.809-9.434-30.896-14.032c-2.525-1.153-5.037-2.292-7.521-3.426
		c-1.234-0.557-2.465-1.114-3.689-1.666c-1.328-0.582-2.813-1.168-4.206-1.74c-5.688-2.203-11.472-4.002-17.258-5.072
		c-5.773-1.104-11.493-1.725-17.028-1.858c-5.529-0.104-10.862,0.212-15.929,0.818c-5.057,0.646-9.828,1.592-14.306,2.691
		c-4.465,1.128-8.607,2.444-12.454,3.8c-7.662,2.785-14.064,5.811-19.207,8.581c-5.15,2.75-9.054,5.259-11.76,7.073
		c-1.355,0.926-2.393,1.661-3.149,2.228c-0.815,0.621-1.237,0.946-1.237,0.946L346.944,312.22z"/>
</g>
</svg>
