<?xml version="1.0" encoding="utf-8"?>
<!-- Generator: Adobe Illustrator 16.0.0, SVG Export Plug-In . SVG Version: 6.00 Build 0)  -->
<!DOCTYPE svg PUBLIC "-//W3C//DTD SVG 1.1//EN" "http://www.w3.org/Graphics/SVG/1.1/DTD/svg11.dtd">
<svg version="1.1" id="Layer_1" xmlns="http://www.w3.org/2000/svg" xmlns:xlink="http://www.w3.org/1999/xlink" x="0px" y="0px"
	 width="600px" height="600px" viewBox="0 0 600 600" enable-background="new 0 0 600 600" xml:space="preserve">
<g>
	<polygon fill="#DC911B" points="128.042,296.997 137.154,296.997 137.154,266.521 159.147,266.521 159.147,258.665 
		128.042,258.665 	"/>
	<path fill="#DC911B" d="M169.202,258.665v38.332h38.331v-7.542l-29.847,0.314v-23.643l30.751-0.236c0,0-1.414,8.131-4.005,8.131
		c-2.593,0-11.311,0-11.311,0v7.304c0,0,6.086-0.04,12.842-0.04c6.754,0,11.311-8.64,10.839-22.621
		C213.032,258.665,169.202,258.665,169.202,258.665z"/>
	<polygon fill="#DC911B" points="222.142,296.997 263.145,296.997 263.145,288.67 245.079,266.363 275.869,266.363 275.869,258.665 
		235.653,258.665 235.496,265.421 253.404,289.927 222.142,289.927 	"/>
	<path fill="#DC911B" d="M294.917,258.665c0,0-9.779,0.04-9.779,9.819s0,28.513,0,28.513h36.761c0,0,9.778-3.299,9.778-10.84
		c0-7.54,0-27.492,0-27.492H294.917z M323.667,286.157c0,2.357-4.359,3.771-4.359,3.771h-26.51c0,0,0-8.483,0-16.023
		c0-7.542,5.654-7.896,5.654-7.896h25.215C323.667,266.009,323.667,283.801,323.667,286.157z"/>
	<rect x="347.231" y="236.672" fill="#DC911B" width="7.894" height="60.325"/>
	<path fill="#DC911B" d="M370.442,258.665v38.332h18.145c0,0,14.728-1.062,21.443-12.136c0,7.54,0,12.136,0,12.136h8.012v-38.332
		h-8.483v13.59c0,0-5.066,12.842-15.315,15.905c-2.711,0.708-13.904,1.296-15.671,1.06c0-3.533,0.117-30.555,0.117-30.555H370.442z"
		/>
	<path fill="#DC911B" d="M501.637,258.665c0,0-12.795,0.925-19.971,10.021v-10.021h-18.145c0,0-14.728,1.06-21.443,12.136
		c0-7.542,0-12.136,0-12.136h-8.012v38.332h8.482v-13.588c0,0,5.066-12.844,15.316-15.907c2.712-0.708,13.904-1.297,15.672-1.062
		c0,3.535-0.118,30.557-0.118,30.557h8.247v-15.742c1.937-3.791,6.69-11.476,14.314-13.753c2.711-0.708,13.903-1.297,15.671-1.062
		c0,3.535-0.118,30.557-0.118,30.557h8.248v-38.332H501.637z"/>
	<path fill="#DC911B" d="M534.918,258.376v38.33h38.331v-7.542l-29.847,0.314v-23.641l30.752-0.236c0,0-1.414,8.13-4.007,8.13
		c-2.591,0-11.311,0-11.311,0v7.304c0,0,6.088-0.038,12.843-0.038c6.754,0,11.311-8.641,10.84-22.621
		C578.749,258.376,534.918,258.376,534.918,258.376z"/>
	<path fill="#DC911B" d="M96.152,250.967H31.43c0,0-13.983,1.414-13.983,13.354c0,11.938,0,38.802,0,38.802h63.781
		c0,0,14.925-0.157,14.925-24.664S96.152,250.967,96.152,250.967z"/>
</g>
</svg>
