<?xml version="1.0" encoding="utf-8"?>
<!-- Generator: Adobe Illustrator 18.1.0, SVG Export Plug-In . SVG Version: 6.00 Build 0)  -->
<svg version="1.1" id="Lager_1" xmlns="http://www.w3.org/2000/svg" xmlns:xlink="http://www.w3.org/1999/xlink" x="0px" y="0px"
	 viewBox="0 0 201.9 114.9" enable-background="new 0 0 201.9 114.9" xml:space="preserve">
<g>
	<g>
		<g>
			<g>
				<g>
					<path fill="#258536" d="M196.5,109c0,0.9,0.4,0.6,0.5,0.7C196.9,108.3,196.4,109.1,196.5,109z"/>
					<polygon fill="#258536" points="195.6,94.7 195.7,95 195.3,92.8 					"/>
					<path fill="#258536" d="M195.6,81.3c-0.7,1.3,0.1,4.9-0.1,7.2l-0.2,0.4l0.6,1.1C195.8,87.1,195.4,83.3,195.6,81.3z"/>
					<path fill="#258536" d="M197.1,74.1c-0.3,0.4-0.2-1.5-0.1,1.7c0-0.2,0-0.2,0.1-0.3C197.1,75.2,197.1,74.8,197.1,74.1z"/>
					<path fill="#258536" d="M197.1,75.5C197.1,76.9,197.3,74.6,197.1,75.5L197.1,75.5z"/>
					<path fill="#258536" d="M196.9,69l0.2,1.9c0.2-0.4,0.2-2,0.3-1.4C197.4,67.5,197.2,67.9,196.9,69z"/>
					<path fill="#258536" d="M196.4,67.2l0.1,1C196.6,68,196.6,67.8,196.4,67.2z"/>
					<path fill="#258536" d="M196.7,70.2l-0.2-2c-0.1,0.3-0.3,0.3,0.1,0.9C196.4,69,196.6,69.4,196.7,70.2z"/>
					<path fill="#258536" d="M196.6,71.4c-0.2,1-0.3,2.4-0.5,0.5C196.2,75.5,196.7,75,196.6,71.4z"/>
					<path fill="#258536" d="M194.8,80.6l-0.2,1.4l0.2,1.2C194.7,82.6,195.1,80.5,194.8,80.6z"/>
					<path fill="#258536" d="M197.3,57.4c-0.2-0.1-0.4,0.6-0.6,0.8l0.2,1.4C197,58.8,197.1,57.5,197.3,57.4z"/>
					<path fill="#258536" d="M196.7,58.2l-0.3-2.1C196.4,57.9,196.5,58.3,196.7,58.2z"/>
					<polygon fill="#258536" points="195.6,66.9 196.2,70.3 195.6,66.2 					"/>
					<polygon fill="#258536" points="197.3,49.6 197.7,50.7 197.1,48.6 					"/>
					<path fill="#258536" d="M197.3,44.3c0.3,0.9,0.5-1.2,0.7-0.3c-0.1-1.4-0.3-2.6-0.5-3.7C197.5,41.5,197.5,42.7,197.3,44.3z"/>
					<path fill="#258536" d="M197.1,38.5c0.1,0.6,0.2,1.2,0.3,1.8C197.3,39.7,197.2,39.1,197.1,38.5z"/>
					<path fill="#258536" d="M196.5,52.6c0.1-0.2,0.3-0.5,0.4-1.6l-0.4,0.8C196.5,52,196.5,52.3,196.5,52.6z"/>
					<path fill="#258536" d="M196.5,51.8L196.5,51.8c0-0.9,0-1.5,0-1.8C196.5,50.3,196.5,50.8,196.5,51.8z"/>
					<path fill="#258536" d="M196.5,52.8c0-0.1,0-0.1,0-0.2C196.5,52.7,196.5,52.7,196.5,52.8z"/>
					<path fill="#258536" d="M196,61.5c-0.2-1.2-0.5-3.7-0.9-1.3C195.4,61.1,195.7,59.7,196,61.5z"/>
					<path fill="#258536" d="M196,53.8l-0.1,2.2c0.1,0,0.3-0.4,0.4,0.2L196,53.8z"/>
					<polygon fill="#258536" points="195.9,52.7 196,53.8 196,53 					"/>
					<path fill="#258536" d="M196.7,42.3c-0.2-0.9-0.2-2-0.2-3.1c-0.1,1.2-0.1,2.5-0.1,3.8C196.5,43.1,196.7,43.6,196.7,42.3z"/>
					<path fill="#258536" d="M196.6,46.9c0-0.1,0-0.1,0-0.2C196.5,46.8,196.5,46.9,196.6,46.9z"/>
					<path fill="#258536" d="M196.5,27.7c0,0.1-0.1,0.1-0.1,0.2c0,0,0,0,0.1,0L196.5,27.7z"/>
					<path fill="#258536" d="M196.2,43.1c-0.1,0.9,0,1.5,0.2,2c0-0.7-0.1-1.4-0.1-2.2C196.3,42.8,196.2,42.8,196.2,43.1z"/>
					<path fill="#258536" d="M196.9,35.3c-0.1,0.5-0.2,1-0.2,1.6C196.8,36.5,197,35.5,196.9,35.3z"/>
					<path fill="#258536" d="M196.7,46.4c0,0,0,0.1,0,0.1C196.8,46.2,196.7,46.3,196.7,46.4z"/>
					<path fill="#258536" d="M196.7,46.4c-0.1-0.5-0.2-0.9-0.3-1.2c0,0.6,0.1,1.1,0.1,1.6C196.6,46.6,196.6,46.5,196.7,46.4z"/>
					<path fill="#258536" d="M193.7,24.2c0.4,0.2,0.8,2.6,0.3,4.8c0.3,2.1,1.6,0.7,2.3-1.1c-0.2-0.1-0.3-0.1-0.6-2.2
						c-0.2,0.8-0.5,4.8-0.9,3c-0.2-2.9,0.1-2.3,0.3-3.7c-0.5,1.2-0.7-3.6-1.4-3l0.3,2.5C194,24.4,193.8,23.5,193.7,24.2z"/>
					<path fill="#258536" d="M196.3,32l0,0.9c0.1-1,0.2-1.7,0.5-3.1c-0.2-1.5-0.3-1.8-0.5-1.9l-0.1,4.4L196.3,32z"/>
					<path fill="#258536" d="M196.4,36.8c-0.4-0.7-0.6-2.8-1.1-1.5c0,2.6,0.4,1.8,0.5,3.4C195.7,34.5,196.1,39.9,196.4,36.8
						c0,0.9,0,1.6,0.1,2.3c0.1-0.8,0.1-1.5,0.2-2.2c0,0,0,0.1,0,0.1l0,0l0,0c-0.1,0.2-0.1,0.2-0.1,0c0,0,0-0.1,0-0.1
						C196.5,37,196.4,36.9,196.4,36.8c0.1-1.2,0.1-0.2,0.2,0.2c0,0,0,0,0.1,0.1c0,0,0,0,0,0l-0.2-4.2
						C196.3,33.7,196.3,34.9,196.4,36.8z"/>
					<path fill="#258536" d="M194.2,58c0-0.1,0.1-0.1,0.1-0.1C194.3,57.6,194.2,57.5,194.2,58z"/>
					<path fill="#258536" d="M194.5,56.2c0.1,0.3,0.2,0.6,0.2,1.6c-0.1,0.9-0.2,0-0.3,0c0.1,0.6,0.3,2.1,0.5,0.2l-0.1-0.3
						c0.1-1.7,0.7-3.9,0.7-3.6C195.1,54.7,194.9,55.1,194.5,56.2z"/>
					<path fill="#258536" d="M195.3,46.4l-0.2-3.5l-0.4,1.8l0.2-0.1C194.9,46.6,195.2,46.2,195.3,46.4z"/>
					<polygon fill="#258536" points="196.7,27.3 197.1,27.7 196.5,25.7 					"/>
					<polygon fill="#258536" points="196.6,22.7 197,22.9 196.8,21.7 					"/>
					<path fill="#258536" d="M6.9,55.1l0.1,1C7,55.7,7,55.4,6.9,55.1z"/>
					<path fill="#258536" d="M6.9,47.7l-0.2-0.2C6.9,47.8,6.9,48,6.9,47.7z"/>
					<path fill="#258536" d="M99.8,2.6c-1.5-0.4-3.2-0.9-3-0.5l0.5,0.4C98.3,2.4,99.1,2.5,99.8,2.6z"/>
					<path fill="#258536" d="M23.1,5.2c0.1,0,0.3,0.1,0.4,0.1c0.4-0.1,0.7-0.3,1-0.4C24.1,5,23.6,5.1,23.1,5.2z"/>
					<path fill="#258536" d="M22,7l-2-0.3C20.5,6.8,21.1,6.9,22,7z"/>
					<path fill="#258536" d="M7.4,95.9l0.4,1.2C7.8,95.2,7.6,96,7.4,95.9z"/>
					<path fill="#258536" d="M165,2.7c-1.3-0.2-2.3-0.2-3.2-0.3C163.3,2.7,164.6,3.1,165,2.7z"/>
					<path fill="#258536" d="M2.3,52.2c0.1,0.6,0.2,0.9,0.3,0.9C2.5,52.4,2.4,52.1,2.3,52.2z"/>
					<path fill="#258536" d="M158,2.4c0.2,0,0.5,0.1,0.7,0.1c0.9-0.1,1.9-0.1,3.1-0.1C160.6,2.3,159.3,2.1,158,2.4z"/>
					<path fill="#258536" d="M138.5,107.3c0.1,0,0.2,0,0.3,0.1C138.9,107.2,138.7,107.2,138.5,107.3z"/>
					<path fill="#258536" d="M181.6,111.6c-0.4,0-1.1,0-1.8,0C180.1,111.7,180.6,111.7,181.6,111.6z"/>
					<path fill="#258536" d="M195.6,2.4C197.3,2.3,195.9,2.3,195.6,2.4L195.6,2.4z"/>
					<path fill="#258536" d="M195.1,9.1c0-0.2-0.1-0.4-0.2-0.4C195,8.7,195,8.9,195.1,9.1z"/>
					<path fill="#258536" d="M148.4,5.1C148.4,5.1,148.4,5.1,148.4,5.1C148.6,5.2,148.6,5.2,148.4,5.1z"/>
					<path fill="#258536" d="M196.6,3.8c0-0.4,0.1-0.8,0.1-1.3c-0.2,0-0.5,0-0.8,0c0.1,0,0.3,0,0.8,0C196.7,2.6,196.6,3.1,196.6,3.8
						z"/>
					<path fill="#258536" d="M196.8,3.3c0,0.6,0,1,0,1.5C196.8,4.9,196.9,4.7,196.8,3.3z"/>
					<path fill="#258536" d="M193.3,2.4c0.9,0,1.8,0,2.6,0c-0.3,0-0.4-0.1-0.3-0.1C195.1,2.4,194.4,2.4,193.3,2.4z"/>
					<path fill="#258536" d="M59.3,108.4c0.1,0,0.1,0,0.2,0C60.5,108.3,60.1,108.3,59.3,108.4z"/>
					<path fill="#258536" d="M74.6,7.1c0,0,0.1,0,0.1,0C74.7,7.1,74.6,7.1,74.6,7.1L74.6,7.1z"/>
					<path fill="#258536" d="M71.1,7.4c1.5-0.5,2.3-0.5,3.4-0.4l-1.1-1.3L71.1,7.4z"/>
					<path fill="#258536" d="M7,73l0.4-2.4c0.6,2.9,0.4,5.1,1,2.8C7,73,8.3,63.9,6.9,63.5l0.3-1.6c0,0.5,0.1,0.5,0.1,1
						c0.7-3.1-1-2.3-0.8-6.4c0.1-1.4,0.3-2.4,0.5-1.4L6.6,52c0-0.9,0.3-0.7,0.2,0.2l-0.1-4.8l0,0c-0.2-0.7-0.5-2.2-0.7-3
						c0.2-1.2,0.1,0.6,0.3,0.3l-0.3-2.6c0.4-1.1,0.7,1.1,0.6,2.9c1.4-2.5-0.3-2.2,0.5-7.5l0.2,2.5c0.8-1.6,0.5-3.6,1-6.4
						c-0.3,0.7-1.2,5.6-1.5,2.8c0.1-0.8,0.2-1.9-0.1-3.4c0.5,0,0.4-1.5,0.3-3.4l0.6,0.1c-0.2-2-0.5-1.9-0.8-3.1
						c0.1-2.3,0.6-2.7,1-3.3c0.1-3.6-0.8,2.5-0.9-1.8c0.2-3,0-5.2-0.4-8.8c0.2-2.1,0.4,0.4,0.6-0.4l-0.5-1.9c0-0.5,0.2-0.3,0.2-0.2
						c-0.1-0.8-0.3-0.8-0.4-1C6.3,9.3,6.2,9.2,6.1,8.9C6.1,8.8,6,8.6,6,8.2C5.6,7.9,5.8,7.2,6,6.6c0.7,0.1,1.3,0.3,1.8,0.4
						c0.1,0,0.3,0,0.4,0l0.2,0l0.4,0c0.5,0,0.9-0.1,1.4-0.2c0.8,0.2-0.4,0.4-0.1,0.6c4.2-0.5,3.6-0.4,7.1-1.1l3,0.4
						c-2.2-0.5,0.6-1,3-1.5c-0.8-0.2-1.4-0.4-1.9-0.5l3.9-0.3c0.5,0.1,0.1,0.3-0.6,0.6c0.3-0.1,0.5-0.1,0.7-0.2
						c1.4,0.2,0.7,0.6-0.3,1c-0.5-0.1-0.9-0.3-1.4-0.4c-1,0.4-1.9,0.8-1.7,1.2c0.3-0.1,0.7-0.1,1.3-0.2c-0.3,0.1-0.4,0.2-0.3,0.3
						C23,6.7,23.4,6.5,24,6.4l0.9,0.7l0.2-0.3l5.1,0.4c3.6-0.7,6.8-1.8,12.6-2.1c-1.4,0.5-0.3,0.9-0.4,1.5c-1.6-0.7-4.5,0.3-7.5,0.1
						c1.6,0.1,1.2,0.4,0.8,0.5l5.3-0.6C41,7.2,42.2,7,43.6,7.2c-1.1-1,4-0.7,6.1-1c0.1,0.3-0.4,0.7-3,0.6c2.9,0.8,3.8-1.2,6.6-0.5
						c-0.6,0-1,0-1.3,0.1c1.5-0.3,5.2-0.1,4.3,0.2l-0.6,0c4.3,0.1,13.1,0,13.7-0.8c0,0.1-0.6,1-0.8,1.2l7.7-2.9
						c-0.7,0.7,1.9,2.5-1.6,2.9c1,0.1,2.3,0.2,4.4,0c-0.7-0.1-1.7-1.1-0.8-1.1c2.6,0.8,1.8,0.4,5,1.1c-1-0.2,0.1-1.3,1.8-1.3
						C84.9,6,85.3,6.9,84.7,7l4.1-1.1c-1,0.2-0.2,1,0.7,1.3c-0.4-0.2,3.6,0,4.7-0.1l-1.7-0.3c4.6,0.2,4.6-1.6,9.2-1.5
						c-0.6,0.2-1.4,1.4,1,1.6c1.1-0.6,4.8-2.8,8.8-3.2l0.8,0.3l3.1-0.4c-1.9,0.9-7.4,2.7-10.4,3.4c1.7,0.3,0.5,0.4,3.1,0.4
						c0.9,0.3-1.4,0.5-2.2,0.5l6.1,0.2c-0.3-0.7,4.6-0.7,4.4-1.2l-6.6,0.7c-0.3-0.7,3.8-1.9,8.1-1.8c1.1,0.3-0.8,1.2-0.7,1.4
						c0.6-0.2,4.1-0.4,4.5-0.3l-1.8,0.4c2.4,0.3,3.9-0.9,6.8-0.2c1,0,3,0.9,3.1,0.5c-1.6-0.8-1.9-3.1-0.9-3.7
						c0.3,0.1,5.2,0.7,6.3,1.1c1.6,0.6-2.4,1.4-1.1,2c0.1-0.2,1-0.4,1.3-0.5c1,0.2-0.4,0.6,1.8,0.5c0.4-0.7,4.6,0.1,1.1-0.6
						c2.2-0.2,2.4,0.1,4.9,0.1c-0.8-0.4,2.3-1.5,4.5-1.7c-0.1,0.2,0.4,0.4,0.6,0.5c4.5,0.1,7,0.4,11.2,0.4c0.4,0.2,2.4,0.4,1.6,0.7
						c0.6-0.1,1.2-0.4,2.5-0.4c2.5,0.6-2.9,0.1-1,0.8c0.2-0.4,3.4-0.5,5.2-0.8c-0.6-0.6-4.3-0.1-6.2,0.1c0-0.8,3.2-1.7,7.6-2.1
						c3.5-0.2,1.5,0.5,2.1,0.4c6.6,0.1,5.6-1.5,11.1-0.9c2.2,0.5,0.1,1.1,0.6,1.5c-2.9,0.2-4.4-0.3-6.3-0.3l2.4,0.3
						c-0.9,0.2-2.8,0.3-3.9,0.2c0.9,0.2,3.7,0.3,6.9,0.3c1.6,0,3.3,0,4.9,0.1c1.6,0,3.2,0.1,4.3,0.2c0.8-0.2,2.6-0.4,2-0.6L191.8,5
						c-0.7-0.2,0.1-0.4,1-0.5c0.9-0.1,1.7-0.2,0.5-0.3c0.6-0.1,1.2-0.1,1.9-0.2c0.3,2,0.5,5.3,0.3,7.4l-0.6,0.6
						c0.2-0.1,0.4-2,0.2-2.8c0.3,1.3-0.8,4.7,0,6.1l0.4-2.1c0.3,2.2,1,4.9,0.8,7.5c0.6-1.2-0.1-0.6,0.6-2.5c-0.9,1.7,0-6.9-0.9-4.2
						c0.4-1,0.5-1.8,0.6-2.8c0-0.5,0.1-0.9,0.1-1.5c0.1-0.8,0.2-1.6,0.3-2.6c-0.2,0.2-0.4,1.7-0.3-2.2c-0.1-0.1-0.1-0.5-0.2-0.7
						c0-0.1,0-0.2,0-0.3c0,0.1,0,0.1,0,0.2c0-0.1,0-0.1,0,0.1c-0.1,1-0.2,1.7-0.3,2c-0.2-0.6-0.3-1.7-0.4-2.9
						c-2.2,0.1-4.7,0.2-5.7,0.3c-1.3-0.1,0.6-0.2-0.2-0.4l-1.8,0.4c-0.2-0.4-3.6-0.7-0.4-1l-2.8,0c-1.7-0.3-4-0.4-5.4-0.2
						c-1.3-0.1-3.4,0.5-2.2,0.1l-4.5,0.3l0-0.1c-4.4-0.1-9.1,0.7-14.1-0.1c-1.5,0.1-3,0.3-5.5,0.1l-0.5-0.4c-1.9,0.1-5.7-0.4-6.5,0
						c-2.1-1-9.2-0.2-12.6-0.4l-0.1,0.5c-2.3,0-4.5,0.1-7.4,0.3l0.2,0.4c-2.5,0.4-6.3-0.3-10.2-0.3c0.3-0.2,1.3-0.1,2,0
						c-4.7-1-9.8,0.7-14.1,0c-1.1,0.2-1.8,0.1-2.6,0c0.1,0,0.2,0,0.3,0c-0.1,0-0.3,0-0.4,0c-0.5-0.1-0.9-0.2-1.5-0.2
						c0.4,0.1,0.9,0.2,1.2,0.2c-0.8,0-2,0.1-3.3,0.2l-0.5-0.5c-0.1,0-0.2,0-0.3,0c-1.2-0.2-1,0.2-0.3,0.6C96,3.2,95.5,3.3,95,3.4
						c-1-0.8-3.2,0.3-4.5-0.6c-0.8,0.4-6.1,0.3-6.7,1.2c0-0.1-0.4-0.2,0.3-0.2c-1.3-0.1-2.7-0.2-3.9,0l-0.6-0.6l-2.9,0.8
						c-1.8-0.4-2.5-0.6-0.8-1.1c-4.3,0.7-3.5,0.3-7.1,1L69,3.6c-1.3,0-3.4,0.5-4.2,0.2C61.9,3.1,50.4,3.7,42.9,3
						c1.5,1.2-3.5-0.5-3.8,0.4c-0.4-0.3-1.5-0.4-0.3-0.7c-3.8,0.3-5.7-0.4-8.4,0.3c-0.4-0.3,0.8-0.4,0.4-0.6
						c-0.3,0.1-1.2,0.2-1.6,0.1c-0.4-0.2,0.6-0.2,1.2-0.4c-3.9,0-4.3,0.9-4.6,1.7c-2-0.4-3-0.3-4.4,0.2c-0.7-0.3-1.8-0.5,0.6-0.6
						c-1.4,0-8.3-0.4-8.5,0.3c-0.4-0.2-1.9,0-2.3,0c-1.6,0-2.4,0-3.3-0.1c-1.1,0-2.2,0-4.2,0l1.2,0.1C4.7,4.1,4.3,4.2,3.7,4.2
						c0,1.1-0.2,2.3-0.1,4.3L3.5,8.5c-0.1,0.7-0.1,1.3-0.1,1.8c0,0.5,0,0.8-0.1,1.1c0,0.6,0,0.9,0,1.2c0.1,0.6,0.1,1.2-0.2,3.9
						l0.5-0.3c1,0.5-0.6,4.9-0.2,8L3.7,23c0.4,1.7-1.4,4.9-1.5,6.6C2,30,2,29,1.9,28.5c-0.6,4.6,0.6,0.6,0.8,4
						c-0.3,0.6-0.9-0.8-0.9,1.5c-0.3,1.1,1.1,6.6,0.5,9.8c0.3-0.7,0.5-1.4,0.7,0.2c0.1,2.4-1,6.5-0.2,8.7c-0.1,0.3-0.1,0.4-0.2,0.4
						c0.2,1.9,0.4,6,0.8,7.1c-1.7,1.7,0.8,11.5-0.7,11.5l0.1,5.7l-0.2-0.1c-0.1,3.6,0.3,4.9,0.6,6.2c-0.1,0.8-0.2,0.2-0.3,0.2
						c-0.3,5.3-0.2,5.8,0.5,10.3l-0.5,0.5c0.1,0.6-0.1,2.5-0.2,4.9c-0.1,1.2-0.1,2.5-0.2,3.9c0,0.7,0,1.4,0,2c0,0.4,0,0.8,0.1,1.2
						c0,0.5,0.1,1,0.1,1.5c-0.1-0.1-0.2-0.2-0.2-0.8c0.1,1.5,0.1,3,0.1,4.6c1,0,2,0,3,0.1c1,0,2,0.1,3,0.1c1.3,0.1,2.6,0.2,3.8,0.2
						c2.4,0.1,4.3,0,5.2-0.8l3.9-0.4c-5-0.1,0.7-0.8-1.3-1.1c2-0.1,5.1,0.5,2.7,0.6l-0.4-0.1c-0.9,0.9,6.2,0.3,6.1,1
						c9.9,0,19.5,0.5,28.7,0.5l-1.1-0.7l3.2,0c0.8,0.2,1.1,0.6-1.2,0.5c1.2,0.4,3.9-0.3,3.9-0.5c4.5,0.3-1.8,0.9-0.4,0.9l1.9-0.1
						l-0.4-0.1c1.5-0.3,1.7-0.6,4.4-0.6c1.7,0.1,0.9,0.5,1.6,0.5c0,0.1,0.2,0.1,1.1,0l4.1,0.1l-1.6-0.6c1.8-0.3,3.8,0,1.9-0.6
						c2.7,1,15.1,0.4,16.8,0.7c2.5-0.4,5-0.4,8.1-0.4c-0.8-0.1-1.2-0.8,1.4-0.7c-1,1.3,4.9,0.6,7,1.5c-1.9-0.6,7.5-0.2,4.5-1.1
						c2.2,0.1,0.1,0.5,1.8,0.8c5.3-0.5,11.6,0.3,18.1,0.2c0.1-0.2-1-0.4,0.4-0.7l3.4,0.9c1.3-0.1,1.2-1,3.5-0.4
						c-0.3-0.1-0.8-0.4,0-0.4c12.8,0.9,26.1-0.7,39.1,0.9c-1.8-0.3-0.6-0.4,0.8-0.4c-0.9-0.1,0-0.4-0.2-0.7l5.4,0.7
						c1-0.7,5.8,0,6.4-0.7l-1.7,0.1c2.3-0.7-3.2-1.7-2.9-2.6c-2.6,0.8-6.8-1.3-11,0c-0.9-0.2,0.8-0.3,0.3-0.5
						c-1.1,0.4-2.4,0.5-4.7,0.3l0.3-0.1c-6.7,0.1-9.6-0.3-17.1-0.6l0.6,0.5c-1.6-0.1-2-0.2-2.7-0.3c-1.9,0.7,4.5,0,2.8,0.8
						c-2.1-1-11.4,0-12.8-1.1c-2.5,0,0.7,0.5-1.8,0.5l-0.7-0.3l-0.6,0.4c-1.6-0.1-2.5-0.4-2.5-0.7c0.4,0,1.1-0.1,1.5-0.1
						c-2.1-0.3-6,0.1-6.7,0l2.4,0.2c-6.8,0.3-15.1-0.1-21.6,0.5l0.5,0.2c-5,0.4-4-0.2-9.5-0.1l0.2-0.1c-1.1,0.2-2.6,0.3-4.1,0.3
						c1.4-0.3-2.6-0.5-0.8-0.8c-5.4,0.4-2.7,0.3-6.3,1.2l-0.8-0.4c-1.2,0.3-1.3,0.5-4.1,0.6c2.3-0.3-1.8-0.6,0.8-1
						c-5.8-0.8-8.6,0.8-11.2-0.4c-2.6,1,5,0.6,3.5,0.8c1.2,0.3-2.2,0.8-4,0.7c-1.8,0-3.1-1.3-7.8-1.3c0.5,0,0.5-0.1,1-0.1
						c-1.7-0.3-3.4,0.4-5.5-0.1c-1.2,0.6-2.8,0-3.1,0.8l4.2-0.2c-2.4,0.2-4.7,1.1-8.6,0.7c0.3-0.2,1.5-0.4,2.3-0.5
						c-1.2-0.2-2.2,0.2-3.4-0.1c0.3-0.8,5.2-0.2,7.7-0.8c-1.2-0.3-4.9,0.6-3.6-0.3c-1.9,1.1-4.6-0.1-7.7,0.7l0.2-0.5
						c-0.5,0.1-1.5,0.3-2.4,0.3l1.7-0.6c-2.5,0.5-4.9-0.5-7.3-0.2c5.1,0,1.1,0.6,3.3,0.9c-6.3,0.6-3.6-1.2-10.7-1
						c1-0.1,3.6,0.3,2.1,0.5c-1.3-0.1-3.1-0.3-3.9-0.5c-4.7,0.1,0.7,0.5-1.3,0.8c-1.6-0.6-2.3,0.2-4.3,0.4l0-0.5
						c-5.3-0.3-1.4,1-6.2,0.6l2-0.7l-2.5,0.2l0.5-0.5c-2.7,0.4-3.6,0.3-6.2,0.1c0.6,0.3-0.3,0.9-2.7,0.9c-1.6-0.3,0.9-0.5-2.4-0.4
						c0.8-0.3,1.6-0.7,3-0.2c0.1-0.2,0.7-0.3,0.9-0.5c-1.7-0.3-4.3-0.1-5.6-0.1c0.5,0,1,0,1.3,0.1c0,0-1.2,0.2-2.4,0.3
						c-0.3,0-0.6,0.1-0.9,0.1c-0.2,0-0.3,0.1-0.4,0.1c-0.2,0.1-0.4,0.1-0.4,0.1c-0.3-0.2,0.1-0.3,0.3-0.5c-0.4,0-0.7,0.2-1.4,0.3
						c0,0,0-0.1,0-0.1c0.1-0.1,0.2-0.1,0.3-0.2c0.4-0.3,0.7-0.5,1.1-0.7c-0.2,0.1-0.4,0.1-0.6,0.2c-0.1-0.1-0.2-0.3-0.2-0.6
						c0.1-0.1,0.2-0.3,0.3-0.4c0,0,0.1-0.2,0.1-0.2c0-0.1,0.1-0.2,0.1-0.2c0.1-0.1,0.1-0.1,0.1,0c0.2-2.6-0.8-6.3-0.5-9.7
						c-0.1-0.2-0.1-0.5-0.2-1.2c0.1-3.2,0.6-6,0-9.8l0.7-2.1c-0.2-3-0.9,2.9-1.2-2c-0.2-3.5,0.6-1.3,0.8-2.5
						c-0.4-1.7-1.1-4.7-0.5-7.9C7.1,71.2,7,72,7,73z M6.7,36.6c0.1,0.7,0.4,2.1,0.1,2.6C6.3,38.4,6.6,37.8,6.7,36.6z M28.4,6.1
						c-0.5,0.2-1.3,0.1-2.3-0.1C26.9,6,27.6,6,28.4,6.1z M182.8,2.7C182.7,2.8,182.7,2.8,182.8,2.7C181.1,2.6,181.7,2.7,182.8,2.7z
						 M186,3c0.3-0.1,0.3-0.1,0.2-0.2c-0.2,0.1-1,0.1-1.8,0.1C184.6,3,185.1,3.1,186,3z M69.6,111.7l-0.6-0.1
						C70.4,111.4,70,111.5,69.6,111.7z"/>
					<path fill="#258536" d="M22.2,6.8c-0.2-0.1-0.3-0.2-0.3-0.3C21.6,6.6,21.6,6.7,22.2,6.8z"/>
					<path fill="#258536" d="M7.3,95.7l0,0.1c0,0.1,0.1,0.1,0.1,0.1L7.3,95.7z"/>
					<path fill="#258536" d="M135.4,7c-0.7-0.1-1-0.2-1.3-0.2C134,6.9,134.3,7,135.4,7z"/>
					<path fill="#258536" d="M197,14.4l-0.1-2.1c0,1-0.1,1.4-0.2,1.9C196.8,14.1,197,13.7,197,14.4z"/>
					<path fill="#258536" d="M194,32.6c0.1,0.3,0,0.6,0.1,1l0.2-0.1C194.3,32.1,194.1,31.2,194,32.6z"/>
					<path fill="#258536" d="M195.4,16.3c-0.4,0.2-0.3,1.5-0.2,2.9c0-0.1,0-0.2,0-0.3C195.8,19.4,195.6,17.9,195.4,16.3z"/>
					<path fill="#258536" d="M195.2,19.6c0,0.5,0,0.9,0,1.4C195.5,21.1,195.3,20.4,195.2,19.6z"/>
					<path fill="#258536" d="M190.2,2.7c1.1,0.1,0.8-0.5,1.4-0.4c0.4-0.1,0-0.2-0.6-0.1c-0.1,0-0.3,0-0.5,0c-0.2,0-0.4,0-0.4,0
						c-0.2,0-0.4,0.1-0.6,0.1C188.7,2.6,188.3,2.8,190.2,2.7z"/>
					<polygon fill="#258536" points="194.1,17.5 194.6,17 194.2,16.1 					"/>
					<path fill="#258536" d="M194.4,5.6l-0.1,2.6c0.1-0.1,0.1,0.3,0.2,0.7C194.5,7.3,194.6,5.4,194.4,5.6z"/>
					<path fill="#258536" d="M194.5,8.9c0,0.8,0,1.5,0.1,1.9C194.6,10.4,194.5,9.5,194.5,8.9z"/>
					<polygon fill="#258536" points="193.9,14.3 194,13.6 194.1,11.9 					"/>
					<path fill="#258536" d="M169.7,4.6l-2.6,0.1c-0.3,0.2,0.4,0.3,1.4,0.2C169.1,4.8,170.1,4.8,169.7,4.6z"/>
					<path fill="#258536" d="M177.4,6c-0.7-0.1-0.7-0.2-1.1-0.4l-0.1,0.6L177.4,6z"/>
					<path fill="#258536" d="M170,6.1c-0.3,0.2-3.7,0.5-0.5,0.5C169.8,6.4,172.3,6.3,170,6.1z"/>
					<polygon fill="#258536" points="131.4,5.3 132.1,5.3 132,4.3 					"/>
					<path fill="#258536" d="M97.4,7.8c3,0.2,0.7-0.6,3.5-0.3c0.7-0.2-2.2-0.2-1.5-0.5C97.5,7.3,96.6,7.1,97.4,7.8z"/>
					<path fill="#258536" d="M99.4,7c0.3,0,0.6-0.1,0.9-0.2C99.8,6.9,99.5,7,99.4,7z"/>
					<polygon fill="#258536" points="188.7,112.2 190.7,112.4 189.4,112.1 					"/>
					<path fill="#258536" d="M192.4,111.4l0.5,0.6l1.2-0.6C193.6,111.5,192.8,111.6,192.4,111.4z"/>
					<path fill="#258536" d="M8,31.2L7.9,31c-0.2,0.3-0.2,0.8-0.2,1.7L8,31.2z"/>
					<polygon fill="#258536" points="7.6,57.6 7.6,57.1 7,58 					"/>
					<path fill="#258536" d="M8.3,79.8c0-0.9-0.1-2-0.1-2.9C8.3,78.9,7.6,80,8.3,79.8z"/>
				</g>
			</g>
		</g>
	</g>
</g>
<text transform="matrix(0.9948 -0.1015 0.1015 0.9948 15.9301 83.2271)" fill="#258536" font-family="'Friday13'" font-size="41.5957">APPROVED</text>
</svg>
