<?xml version="1.0" encoding="utf-8"?>
<!-- Generator: Adobe Illustrator 18.1.1, SVG Export Plug-In . SVG Version: 6.00 Build 0)  -->
<svg version="1.1" id="Layer_1" xmlns="http://www.w3.org/2000/svg" xmlns:xlink="http://www.w3.org/1999/xlink" x="0px" y="0px"
	 viewBox="0 0 600 600" enable-background="new 0 0 600 600" xml:space="preserve">
<path fill="#FFFFFF" d="M38.1,10.4c0,8.7-6.4,15.9-14.7,17.1c-0.4,0.1-0.8,0.1-1.2,0.2h-36.5c-0.6-0.1-1.2-0.1-1.7-0.2
	c-8-1.5-14.1-8.6-14.1-17c0-8.9,6.8-16.4,15.6-17.3C-14.8-8-15-9.2-15-10.4c0-9.6,7.8-17.3,17.3-17.3c9.6,0,17.3,7.8,17.3,17.3
	c0,1.2-0.1,2.4-0.4,3.5c0.5-0.1,1-0.1,1.5-0.1C30.4-6.9,38.1,0.8,38.1,10.4z"/>
</svg>
