<?xml version="1.0" encoding="utf-8"?>
<!-- Generator: Adobe Illustrator 18.1.1, SVG Export Plug-In . SVG Version: 6.00 Build 0)  -->
<!DOCTYPE svg PUBLIC "-//W3C//DTD SVG 1.1//EN" "http://www.w3.org/Graphics/SVG/1.1/DTD/svg11.dtd">
<svg version="1.1" id="Lager_1" xmlns="http://www.w3.org/2000/svg" xmlns:xlink="http://www.w3.org/1999/xlink" x="0px" y="0px"
	 viewBox="0 0 1190.6 841.9" enable-background="new 0 0 1190.6 841.9" xml:space="preserve">
<path fill="none" stroke="#E6FFFD" stroke-miterlimit="10" d="M2.7-19.1c0,0-32.9,46.6-3.6,49.4S2.7-19.1,2.7-19.1z"/>
<path fill="none" stroke="#E6FFFD" stroke-miterlimit="10" d="M2.1-12.3c0,0-25.8,36.6-2.8,38.7S2.1-12.3,2.1-12.3z"/>
<path fill="none" stroke="#E6FFFD" stroke-miterlimit="10" d="M1.5-5.8c0,0-18.9,26.8-2.1,28.3S1.5-5.8,1.5-5.8z"/>
<path fill="none" stroke="#E6FFFD" stroke-miterlimit="10" d="M1,0.7c0,0-11.9,16.9-1.3,17.8S1,0.7,1,0.7z"/>
<path fill="none" stroke="#E6FFFD" stroke-miterlimit="10" d="M0.5,6.1c0,0-6.3,8.9-0.7,9.4C5.4,16.1,0.5,6.1,0.5,6.1z"/>
</svg>
