<?xml version="1.0" encoding="utf-8"?>
<!-- Generator: Adobe Illustrator 18.1.1, SVG Export Plug-In . SVG Version: 6.00 Build 0)  -->
<!DOCTYPE svg PUBLIC "-//W3C//DTD SVG 1.1//EN" "http://www.w3.org/Graphics/SVG/1.1/DTD/svg11.dtd">
<svg version="1.1" id="Lager_1" xmlns="http://www.w3.org/2000/svg" xmlns:xlink="http://www.w3.org/1999/xlink" x="0px" y="0px"
	 viewBox="0 0 1190.6 841.9" enable-background="new 0 0 1190.6 841.9" xml:space="preserve">
<g>
	<path fill="#1F395C" d="M-41.7,17.8c0-21.3,18.7-38.6,41.7-38.6S41.7-3.6,41.7,17.8"/>
</g>
<g>
	<path fill="#FFF8BB" d="M36.2,18.2h-0.4c0-9.6-3.8-18.6-10.6-25.4C18.3-14,9.2-17.7-0.5-17.7c-9.7,0-18.8,3.7-25.7,10.5
		c-6.9,6.8-10.6,15.8-10.6,25.4h-0.4c0-9.7,3.8-18.8,10.8-25.6c6.9-6.9,16.2-10.6,26-10.6s19,3.8,26,10.6
		C32.4-0.6,36.2,8.5,36.2,18.2z"/>
</g>
<g>
	<path fill="#FFF8BB" d="M32.7,18.1h-0.4c0-8.7-3.4-16.9-9.7-23c-6.2-6.2-14.5-9.5-23.3-9.5c-8.8,0-17.1,3.4-23.3,9.5
		c-6.2,6.2-9.7,14.3-9.7,23H-34c0-8.8,3.5-17.1,9.8-23.3c6.3-6.2,14.7-9.6,23.6-9.6c8.9,0,17.3,3.4,23.6,9.6
		C29.3,1.1,32.7,9.3,32.7,18.1z"/>
</g>
<g>
	<path fill="#FFF8BB" d="M29.2,18.2h-0.4c0-7.7-3.1-15-8.6-20.4c-5.6-5.5-12.9-8.5-20.8-8.5s-15.2,3-20.8,8.5
		c-5.6,5.5-8.6,12.7-8.6,20.4h-0.4c0-7.8,3.1-15.2,8.7-20.7C-15.9-8-8.5-11-0.5-11s15.4,3,21,8.6C26.1,3.1,29.2,10.4,29.2,18.2z"/>
</g>
<g>
	<path fill="#FFF8BB" d="M24.7,18.2h-0.4C24.3,4.2,13-7.1-0.8-7.1S-26,4.2-26,18.2h-0.4C-26.4,4-14.9-7.5-0.8-7.5S24.7,4,24.7,18.2z
		"/>
</g>
<g>
	<path fill="#FFF8BB" d="M21.3,17.9h-0.4c0-12-9.8-21.7-21.9-21.7S-23,5.9-23,17.9h-0.4c0-12.2,10-22.1,22.3-22.1
		S21.3,5.7,21.3,17.9z"/>
</g>
<g>
	<path fill="#FFF8BB" d="M17.7,17.8h-0.4C17.4,8.2,9,0.4-1.4,0.4s-18.7,7.8-18.7,17.5h-0.4C-20.5,8-11.9,0-1.4,0S17.7,8,17.7,17.8z"
		/>
</g>
<g>
	<path fill="#FFF8BB" d="M14.6,18h-0.4c0-7.9-7-14.4-15.6-14.4S-17.1,10.1-17.1,18h-0.4c0-8.1,7.2-14.7,16-14.7S14.6,9.9,14.6,18z"
		/>
</g>
<g>
	<path fill="#FFF8BB" d="M11.6,17.9h-0.4c0-6.5-5.8-11.7-13-11.7s-13,5.3-13,11.7H-15c0-6.7,6-12.1,13.3-12.1S11.6,11.2,11.6,17.9z"
		/>
</g>
<g>
	<path fill="#FFF8BB" d="M9.9,17.9H9.5c0-5.4-5-9.9-11.2-9.9c-6.2,0-11.2,4.4-11.2,9.9h-0.4c0-5.7,5.2-10.3,11.6-10.3
		C4.7,7.6,9.9,12.2,9.9,17.9z"/>
</g>
<g>
	<path fill="#FFF8BB" d="M8,17.9H7.6c0-4.6-4.2-8.3-9.3-8.3c-5.1,0-9.3,3.7-9.3,8.3h-0.4c0-4.8,4.3-8.7,9.6-8.7
		C3.7,9.2,8,13.1,8,17.9z"/>
</g>
<g>
	<path fill="#FFF8BB" d="M6,18H5.7c0-3.5-3.3-6.4-7.3-6.4c-4,0-7.3,2.9-7.3,6.4h-0.3c0-3.7,3.4-6.8,7.6-6.8C2.6,11.3,6,14.3,6,18z"
		/>
</g>
<g>
	<path fill="#FFF8BB" d="M4.3,17.8H4C4,15.1,1.5,13-1.7,13c-3.2,0-5.7,2.1-5.7,4.8h-0.2c0-2.8,2.7-5,6-5C1.6,12.7,4.3,15,4.3,17.8z"
		/>
</g>
<g>
	<path fill="#FFF8BB" d="M3.1,17.8H2.9c0-1.9-2-3.5-4.5-3.5c-2.5,0-4.5,1.6-4.5,3.5h-0.2c0-2.1,2.1-3.7,4.7-3.7
		C1,14,3.1,15.7,3.1,17.8z"/>
</g>
<g>
	<path fill="#FFF8BB" d="M1.2,17.8H1.1c0-1.2-1.2-2.3-2.7-2.3c-1.5,0-2.7,1-2.7,2.3h-0.1c0-1.3,1.3-2.4,2.8-2.4
		C-0.1,15.5,1.2,16.5,1.2,17.8z"/>
</g>
<g>
	<path fill="#FFF8BB" d="M0,17.8L0,17.8c-0.1-0.7-0.7-1.3-1.6-1.3c-0.8,0-1.5,0.6-1.5,1.3h-0.1c0-0.7,0.7-1.3,1.6-1.3
		C-0.7,16.4,0,17,0,17.8z"/>
</g>
<g>
	<path fill="#FFF8BB" d="M38.9,18h-0.4c0-10-4-19.4-11.3-26.5c-7.3-7.1-17-11-27.4-11c-10.3,0-20.1,3.9-27.4,11C-35-1.4-39,8-39,18
		h-0.4c0-10.1,4.1-19.6,11.5-26.8c7.4-7.2,17.2-11.1,27.7-11.1S20-16,27.4-8.8C34.8-1.6,38.9,7.9,38.9,18z"/>
</g>
</svg>
